<svg width="50" height="54" viewBox="0 0 50 54" fill="none" xmlns="http://www.w3.org/2000/svg">
<path d="M49.3044 10.9299C49.3044 11.3499 48.9345 14.9999 48.2545 19.5599L48.1444 19.6399C47.8744 19.8399 47.1945 20.3999 47.1945 20.9999C47.2454 21.4593 47.4538 21.8868 47.7844 22.2099C47.8069 22.2273 47.827 22.2475 47.8444 22.2699C47.6944 23.1599 47.5445 24.0699 47.3845 24.9799C47.3894 25.013 47.3894 25.0467 47.3845 25.0799C47.3788 25.1765 47.3788 25.2733 47.3845 25.3699C46.3845 30.8299 45.2245 36.2699 44.0145 38.5299C41.2645 43.6499 27.3245 53.2599 26.4445 53.4399C25.5645 53.6199 21.8145 53.9699 21.8145 53.9699L45.9844 7.62988C45.9844 7.62988 46.7444 8.13987 47.5444 8.78987C48.3444 9.43987 49.2744 10.3799 49.3044 10.9299Z" fill="url(#paint0_linear_437_15)"/>
<path d="M46.2248 9.92999C46.2248 15.53 44.3148 29.57 42.0848 36.03C39.8548 42.49 25.2248 53.5 21.7348 53.97C20.5248 54.16 4.7348 42.72 1.7348 34.36C1.58 33.92 1.45965 33.4686 1.37481 33.01C0.206852 25.5169 -0.218564 17.9267 0.104794 10.35C0.102005 9.46106 0.26476 8.57935 0.584775 7.75C1.04477 7.06 6.31482 7.95999 10.6948 6.42999C16.3448 4.42999 21.4448 0 22.4448 0C23.4448 0 28.0848 4.72 33.5848 6.45C39.0848 8.18 45.3048 6.92 45.8848 7.64C46.1729 8.36699 46.2892 9.15067 46.2248 9.92999Z" fill="url(#paint1_linear_437_15)"/>
<g style="mix-blend-mode:soft-light" opacity="0.5">
<path d="M1.41393 27.2694C-0.0160656 29.4394 2.30393 36.6694 6.53393 40.7094C10.7639 44.7494 40.1539 37.3894 41.5939 35.0894C43.0339 32.7894 45.804 18.3494 45.374 15.3994C44.944 12.4494 31.914 19.6294 20.944 23.7194C9.97396 27.8094 2.07393 26.2594 1.41393 27.2694Z" fill="white"/>
</g>
<path d="M39.4646 15.7199C38.7172 22.1719 37.477 28.5573 35.7546 34.8199C34.6146 38.1099 24.9346 45.2599 21.4246 46.3199C21.1572 46.4229 20.8707 46.4673 20.5846 46.4499C19.3846 46.3099 8.76464 36.6599 7.06464 31.9699C6.34464 29.9699 5.32465 22.7899 5.26465 17.5399C5.26465 16.7299 5.26465 15.9799 5.26465 15.2899V15.2399C5.36465 13.5799 5.62461 12.3399 6.10461 11.8999C7.02461 11.0599 10.9546 11.4999 14.4646 10.4699C18.4046 9.31992 21.9746 6.72992 23.1646 6.80992C24.3546 6.88992 27.4946 8.97991 31.1146 10.3699C34.7346 11.7599 38.7546 12.4399 39.2946 13.0199C39.4479 13.2903 39.5175 13.6 39.4946 13.9099C39.5191 14.5133 39.509 15.1177 39.4646 15.7199Z" fill="url(#paint2_linear_437_15)"/>
<g style="mix-blend-mode:multiply">
<path d="M21.7344 53.9801C21.7344 53.9801 28.2344 51.5801 35.8644 43.9801C43.4944 36.3801 43.5444 37.4901 43.8644 38.0801C44.1844 38.6701 39.5344 44.5401 34.1944 47.8601C28.8544 51.1801 26.7844 53.4301 25.9344 53.5401C25.0844 53.6501 21.7344 53.9801 21.7344 53.9801Z" fill="#DEA0BB"/>
</g>
<path d="M35.6745 34.59C34.5245 37.95 24.6745 45.24 21.0745 46.32C19.1745 45.61 11.2145 37.07 9.51452 33.05C7.81452 29.03 7.40446 14.94 7.70446 13.68C7.85446 13.05 11.5245 12.78 14.7045 11.52L15.2445 11.3C18.3145 10.03 21.5745 8.15997 23.1245 8.20997C24.6745 8.25997 28.0045 10.32 31.9145 11.52C35.4745 12.62 38.9145 12.68 39.5245 13.25C39.7345 17.11 36.8145 31.3 35.6745 34.59Z" fill="url(#paint3_radial_437_15)"/>
<path d="M14.7341 11.4994C14.7341 11.4994 12.0041 22.6194 15.1141 40.7794L16.0341 41.7794C16.0341 41.7794 14.0341 30.2194 13.9441 24.2194C13.9505 19.9082 14.3285 15.6056 15.0741 11.3594L14.7341 11.4994Z" fill="#8D001A"/>
<path d="M27.7345 9.89941C26.9787 15.8694 26.608 21.8818 26.6246 27.8994C26.7746 36.4894 27.1745 42.8394 27.1745 42.8394L28.0445 42.2094C28.0445 42.2094 26.7345 31.8594 26.7345 26.1794C26.7345 20.4994 28.0845 12.5894 28.1145 11.8994C28.0721 11.2195 27.9444 10.5476 27.7345 9.89941Z" fill="#8D001A"/>
<g style="mix-blend-mode:soft-light" opacity="0.5">
<path d="M42.1843 37.62C41.5043 37.31 43.2643 33.2901 43.5643 32.0701C43.8643 30.8501 45.5643 31.14 45.8743 31.29C46.1843 31.44 44.7343 36.72 44.5743 37.12C44.4143 37.52 42.1843 37.62 42.1843 37.62Z" fill="white"/>
</g>
<g style="mix-blend-mode:multiply" opacity="0.2">
<path d="M7.60475 42.7501C6.66475 41.7501 12.3548 41.6001 14.8148 42.8701C17.2748 44.1401 20.2948 47.1101 20.9448 47.2101C21.5948 47.3101 32.4348 39.6901 33.8148 38.7401C35.1948 37.7901 40.0248 36.6101 41.1048 37.1201C42.1848 37.6301 27.9948 50.7301 24.3548 52.3501C20.7148 53.9701 14.8448 50.2701 7.60475 42.7501Z" fill="#DEA0BB"/>
</g>
<g style="mix-blend-mode:multiply" opacity="0.7">
<path d="M46.2245 9.93027C46.0945 8.33027 44.6145 8.73028 35.5345 7.27028C26.4545 5.81028 25.5345 2.50028 23.5345 1.97028C21.5345 1.44028 20.0845 2.04027 15.2945 5.06027C10.5045 8.08027 0.604527 7.78028 0.104527 10.3803C0.101738 9.49133 0.264493 8.60963 0.584508 7.78027C1.04451 7.09027 6.31455 7.99028 10.6946 6.46028C16.3446 4.46028 21.4446 0.0302734 22.4446 0.0302734C23.4446 0.0302734 28.0845 4.75027 33.5845 6.48027C39.0845 8.21027 45.3046 6.95027 45.8846 7.67027C46.1681 8.388 46.2843 9.16089 46.2245 9.93027Z" fill="#DEC0CF"/>
</g>
<path d="M34.6748 45.1195C34.6748 45.1195 40.0648 40.5595 42.0248 34.5295C43.9848 28.4995 46.0248 13.7295 46.0248 13.7295C46.0248 13.7295 44.1748 31.3995 42.0248 36.0295C39.8748 40.6595 34.6748 45.1195 34.6748 45.1195Z" fill="#F0DBD6"/>
<path d="M13.0042 39.8896C13.0042 39.8896 6.92414 33.3696 5.74414 24.5596C5.96454 27.2242 6.40266 29.8664 7.05414 32.4596C7.84414 34.6696 13.0042 39.8896 13.0042 39.8896Z" fill="#F0DBD6"/>
<g style="mix-blend-mode:multiply">
<path d="M21.7344 53.9694C20.5244 54.1594 4.73438 42.7194 1.73438 34.3594C6.77993 42.3668 13.6292 49.0825 21.7344 53.9694Z" fill="#E6B7CB"/>
</g>
<g style="mix-blend-mode:soft-light" opacity="0.5">
<path d="M28.3447 30.9902C28.3447 30.9902 28.9047 33.8802 30.0447 34.5702C31.1847 35.2602 35.5347 32.2802 35.5347 32.2802C35.5347 32.2802 32.8148 35.0102 30.8248 35.3502C28.8348 35.6902 28.8647 32.6802 28.3447 30.9902Z" fill="white"/>
</g>
<g style="mix-blend-mode:soft-light" opacity="0.5">
<path d="M29.5146 22.5C29.5146 22.5 30.4046 27.05 32.0546 27.81C33.7046 28.57 35.3646 26.5 35.3646 26.5C35.3646 26.5 33.7946 28.07 32.4446 27.64C30.4646 26.99 29.5146 22.5 29.5146 22.5Z" fill="white"/>
</g>
<g style="mix-blend-mode:multiply" opacity="0.5">
<path d="M39.4648 15.7197C38.1048 15.9497 27.6348 11.5697 24.2348 10.3497C20.6248 9.05967 17.5849 16.3497 8.57487 15.6197C7.57487 15.5497 6.83485 19.1097 5.74485 18.6197C5.48485 18.5097 5.33487 18.0997 5.26487 17.5297C5.18124 16.782 5.18124 16.0273 5.26487 15.2797V15.2297C5.33449 14.0737 5.61934 12.941 6.10484 11.8897C7.02484 11.0497 10.9548 11.4897 14.4648 10.4597C18.4048 9.30967 21.9748 6.71966 23.1648 6.79966C24.3548 6.87966 27.4949 8.96966 31.1148 10.3597C34.7348 11.7497 38.7548 12.4297 39.2948 13.0097C39.4481 13.28 39.5177 13.5897 39.4949 13.8997C39.5197 14.5064 39.5096 15.1141 39.4648 15.7197Z" fill="#BE2F55"/>
</g>
<g style="mix-blend-mode:multiply" opacity="0.3">
<path d="M35.6745 34.5897C34.5245 37.9497 24.6745 45.2397 21.0745 46.3197C19.1745 45.6097 11.2145 37.0697 9.51452 33.0497C7.81452 29.0297 7.40446 14.9397 7.70446 13.6797C7.70446 13.6797 8.12449 27.0597 11.7945 33.0097C15.4645 38.9597 29.6545 37.0997 33.4545 32.6797C37.2545 28.2597 35.1645 16.9097 33.4545 14.6797C31.7445 12.4497 20.3945 10.1297 16.5945 10.9997L15.2645 11.3097C18.3345 10.0397 21.5945 8.16973 23.1445 8.21973C24.6945 8.26973 28.0245 10.3297 31.9345 11.5297C35.4945 12.6297 38.9345 12.6897 39.5445 13.2597C39.7345 17.1097 36.8145 31.2997 35.6745 34.5897Z" fill="#BE2F55"/>
</g>
<g style="mix-blend-mode:multiply" opacity="0.5">
<path d="M15.0948 40.8C13.8253 35.7744 13.1242 30.6221 13.0049 25.44C13.131 21.0056 13.6531 16.5914 14.5649 12.25C13.9318 16.9373 13.5977 21.6602 13.5649 26.39C13.5714 31.2335 14.0841 36.0631 15.0948 40.8Z" fill="#BE2F55"/>
</g>
<g style="mix-blend-mode:multiply" opacity="0.5">
<path d="M27.7347 9.89941C26.7337 15.5123 26.1986 21.1983 26.1348 26.8994C26.1389 32.2482 26.4729 37.5917 27.1348 42.8994C27.1348 42.8994 25.6548 24.4594 27.6948 9.89941H27.7347Z" fill="#BE2F55"/>
</g>
<path d="M15.9043 42.7496C15.9043 42.7496 19.8043 45.2196 21.1743 45.4696C22.5443 45.7196 29.1743 41.3896 29.1743 41.3896C29.1743 41.3896 23.1043 46.4596 21.0043 46.7096C19.6643 46.8796 15.9043 42.7496 15.9043 42.7496Z" fill="#DEDBCA"/>
<g style="mix-blend-mode:multiply" opacity="0.5">
<path d="M27.734 47.9803C24.604 47.3103 30.734 41.1302 33.194 39.8302C35.654 38.5302 35.314 42.8303 33.574 44.8903C31.834 46.9503 27.734 47.9803 27.734 47.9803Z" fill="#C4B3BB"/>
<path d="M36.164 40.6601C35.254 40.3801 36.214 38.2801 37.494 38.6601C38.774 39.0401 37.454 41.0601 36.164 40.6601Z" fill="#C4B3BB"/>
<path d="M2.104 10.3503C-0.0659986 11.6003 1.044 15.3503 2.164 16.3503C3.284 17.3503 5.164 14.1203 4.604 11.9403C4.044 9.76033 3.114 9.76034 2.104 10.3503Z" fill="#C4B3BB"/>
<path d="M2.78393 18.2003C2.57393 17.7403 3.61395 16.4103 4.17395 16.9703C4.73395 17.5303 3.40393 19.5003 2.78393 18.2003Z" fill="#C4B3BB"/>
</g>
<path d="M5.73404 25.5703C5.14404 24.8103 4.94402 23.1403 5.59402 22.5703C6.24402 22.0003 7.04403 25.4503 6.41403 25.7203C5.78403 25.9903 5.73404 25.5703 5.73404 25.5703Z" fill="#7F4B6E"/>
<g style="mix-blend-mode:multiply">
<path d="M5.18457 23.3096C5.18457 24.5196 5.42459 24.8096 6.01459 24.9296C6.60459 25.0496 6.64455 23.4896 6.10455 22.8296C5.56455 22.1696 5.18457 23.3096 5.18457 23.3096Z" fill="#DEA0BB"/>
</g>
<path d="M5.32422 24.8497C5.32422 24.8497 5.69417 25.5697 6.15417 25.4197C6.61417 25.2697 6.48419 24.4697 6.48419 24.4697C6.48419 24.4697 6.82419 25.7197 6.29419 25.9297C5.76419 26.1397 5.46422 25.4997 5.32422 24.8497Z" fill="#C0A9AC"/>
<path d="M4.66411 32.0696C4.00411 31.5996 3.57412 30.4596 4.10412 29.9696C4.63412 29.4796 5.88415 31.8196 5.32415 32.0696C4.76415 32.3196 4.66411 32.0696 4.66411 32.0696Z" fill="#996F8B"/>
<g style="mix-blend-mode:multiply">
<path d="M3.86426 30.4997C4.08426 31.3497 4.30426 31.4997 4.86426 31.5497C5.42426 31.5997 5.26424 30.4797 4.65424 30.0797C4.04424 29.6797 3.86426 30.4997 3.86426 30.4997Z" fill="#DEA0BB"/>
</g>
<path d="M4.21484 31.5997C4.21484 31.5997 4.66484 32.0697 5.08484 31.9097C5.35484 31.8097 5.25488 31.2197 5.25488 31.2197C5.25488 31.2197 5.76488 32.0497 5.25488 32.2197C4.74488 32.3897 4.43484 32.0097 4.21484 31.5997Z" fill="#C0A9AC"/>
<g style="mix-blend-mode:multiply" opacity="0.2">
<path d="M24.2841 1.66005C23.0541 0.990055 24.7041 5.77005 26.9341 7.66005C29.1641 9.55005 37.0241 12.3301 40.0341 12.5201C43.0441 12.7101 45.5741 8.93005 45.6241 8.23005C45.6741 7.53005 42.2741 8.17005 35.3441 6.80005C31.2859 6.03773 27.4834 4.27057 24.2841 1.66005Z" fill="#DEA0BB"/>
</g>
<g style="mix-blend-mode:soft-light" opacity="0.8">
<path d="M40.3641 14.7098C40.0341 12.4998 45.1041 9.76975 45.6241 9.10975C46.1441 8.44975 46.034 12.8697 44.974 14.1097C43.914 15.3497 40.3641 14.7098 40.3641 14.7098Z" fill="white"/>
</g>
<path d="M30.3203 18.3603C28.9379 17.6258 27.4482 17.0673 25.8791 16.7126C25.6668 17.0542 25.4157 17.5155 25.24 17.8836C23.57 17.545 21.9027 17.4602 20.238 17.6293C20.1005 17.2453 19.8923 16.7607 19.714 16.3992C18.1153 16.5928 16.5748 16.9991 15.1249 17.5914C12.0492 21.7625 11.0609 25.9321 11.2372 30.1011C13.0597 31.6122 14.852 32.5649 16.6283 33.219C17.1052 32.6283 17.5358 31.9965 17.9131 31.3268C17.2736 31.0458 16.6646 30.7083 16.0924 30.3233C16.2549 30.2153 16.4142 30.1018 16.5685 29.9845C20.0826 31.8511 23.9937 32.0499 27.6359 30.5471C27.7792 30.6795 27.9262 30.8086 28.0751 30.9324C27.4651 31.2591 26.8232 31.533 26.1585 31.7477C26.4661 32.4505 26.8286 33.1244 27.2448 33.7605C29.0801 33.2899 30.9615 32.524 32.9279 31.2038C33.6267 26.4168 32.6084 22.1838 30.3203 18.3603ZM18.5782 27.9159C17.4976 27.861 16.6627 26.8072 16.7252 25.5787C16.7876 24.3503 17.7062 23.3838 18.8057 23.4397C19.9053 23.4956 20.7401 24.5494 20.6587 25.7787C20.5979 27.0072 19.6777 27.9718 18.5782 27.9159ZM25.8463 28.2854C24.7657 28.2305 23.9309 27.1766 23.9933 25.9482C24.0558 24.7198 24.9743 23.7533 26.0739 23.8092C27.1734 23.8651 28.0082 24.9189 27.9268 26.1482C27.8643 27.3766 26.9458 28.3413 25.8463 28.2854Z" fill="#FFC000"/>
<path d="M28.7102 20.4589L26.8872 19.5262C27.01 19.4307 27.1838 19.0605 26.8967 18.3437C26.5377 17.4476 27.9613 19.2785 28.246 19.6447C28.4738 19.9377 28.6504 20.3096 28.7102 20.4589Z" fill="#FFD901"/>
<ellipse cx="14.5001" cy="28" rx="0.5" ry="1" transform="rotate(-30.4942 14.5001 28)" fill="#FFDD01"/>
<defs>
<linearGradient id="paint0_linear_437_15" x1="32.3144" y1="9.54988" x2="38.2545" y2="51.7899" gradientUnits="userSpaceOnUse">
<stop stop-color="#97777D"/>
<stop offset="1" stop-color="#9C89A2"/>
</linearGradient>
<linearGradient id="paint1_linear_437_15" x1="20.8848" y1="0.22" x2="28.3048" y2="53.05" gradientUnits="userSpaceOnUse">
<stop stop-color="#E0D9E1"/>
<stop offset="1" stop-color="#B9A4A8"/>
</linearGradient>
<linearGradient id="paint2_linear_437_15" x1="20.9246" y1="7.07992" x2="26.3546" y2="45.6799" gradientUnits="userSpaceOnUse">
<stop stop-color="#97777D"/>
<stop offset="1" stop-color="#9C89A2"/>
</linearGradient>
<radialGradient id="paint3_radial_437_15" cx="0" cy="0" r="1" gradientUnits="userSpaceOnUse" gradientTransform="translate(17.7645 19.88) scale(25.95 25.95)">
<stop stop-color="#CE5411"/>
<stop offset="1" stop-color="#B42B00"/>
</radialGradient>
</defs>
</svg>
