<svg width="61" height="44" viewBox="0 0 61 44" fill="none" xmlns="http://www.w3.org/2000/svg">
<path d="M29.79 13.34C29.79 13.34 34.26 1.92 35.23 1.89C36.2 1.86 55.18 2.63998 56.23 2.64998C57.28 2.65998 51.89 17.65 51.89 17.65C51.89 17.65 43.46 13.97 29.79 13.34Z" fill="url(#paint0_linear_416_3829)"/>
<path d="M56.2406 2.6499C56.2406 2.6499 57.2406 3.48992 57.2406 4.10992C57.2406 4.72992 51.5806 18.8099 51.5806 18.8099L51.3506 17.3299L56.2406 2.6499Z" fill="url(#paint1_linear_416_3829)"/>
<path d="M49.2899 33.3499C48.7399 35.4899 48.2899 37.0699 48.1199 37.3499C47.5699 38.4899 32.7698 43.2099 30.5198 43.3499C28.2698 43.4899 16.5199 39.4599 14.6599 38.0599C14.179 37.1195 13.8579 36.1057 13.7098 35.0599C12.4998 29.7499 10.8399 19.2299 10.9399 17.9599C11.0699 16.2599 26.5698 12.3199 29.8298 12.6899C34.2498 13.1799 50.6799 16.3899 51.9099 17.6899C52.7799 18.5499 50.7199 27.8199 49.2899 33.3499Z" fill="url(#paint2_linear_416_3829)"/>
<path d="M10.9298 17.97C10.9298 18.84 28.2798 24.92 31.7698 24.97C35.2598 25.02 50.2298 18.97 51.2998 17.97C52.3698 16.97 35.6298 13.41 30.3898 12.71C25.1498 12.01 10.8798 16.97 10.9298 17.97Z" fill="url(#paint3_linear_416_3829)"/>
<g style="mix-blend-mode:multiply" opacity="0.5">
<path d="M33.0207 25.2098C32.0207 25.6798 31.0207 42.0599 31.1407 42.6899C31.2607 43.3199 47.7507 38.6099 48.1407 37.3899C48.5307 36.1699 52.9107 20.7999 52.1407 19.3899C51.3707 17.9799 33.0207 25.2098 33.0207 25.2098Z" fill="#BE2F55"/>
</g>
<path d="M48.4604 17.6898C48.6104 18.8398 36.2004 23.1199 31.7504 23.5799C30.0204 23.7599 14.1704 18.7898 13.5604 17.6898C12.9504 16.5898 25.5605 13.3398 29.7905 13.3398C34.0205 13.3398 48.3004 16.5398 48.4604 17.6898Z" fill="url(#paint4_linear_416_3829)"/>
<g style="mix-blend-mode:multiply" opacity="0.2">
<path d="M29.7905 13.3398V23.2698C28.0505 23.4498 14.1705 18.7898 13.5605 17.6898C12.9505 16.5898 25.5305 13.3398 29.7905 13.3398Z" fill="#FF8355"/>
</g>
<path d="M33.0201 25.21C33.0201 25.21 41.3101 11.21 41.5501 10.61C41.8601 9.84001 41.4901 9.8 41.1101 9.85C40.7301 9.9 31.7201 23.85 31.7501 24.03C32.1315 24.4662 32.5571 24.8616 33.0201 25.21V25.21Z" fill="url(#paint5_linear_416_3829)"/>
<path d="M41.5307 10.61C41.5307 10.61 58.8607 6.72998 60.1007 6.72998C61.3407 6.72998 52.1007 18.98 52.1007 18.98C52.1007 18.98 38.1807 24.74 33.0107 25.21L41.5307 10.61Z" fill="url(#paint6_linear_416_3829)"/>
<path d="M41.1104 9.84985C41.1104 9.84985 50.1104 8.19984 59.3904 6.33984C59.3904 6.33984 60.0304 6.41986 60.1204 6.72986C60.2104 7.03986 41.5304 10.6099 41.5304 10.6099C41.5304 10.6099 42.1804 9.90985 41.1104 9.84985Z" fill="url(#paint7_linear_416_3829)"/>
<path d="M11.0701 18.0701C11.0701 18.0701 2.89012 4.65013 3.28012 3.57013C3.67012 2.49013 4.08013 2.57013 4.45013 2.79013C4.82013 3.01013 13.0101 17.7901 13.0101 17.7901C12.3967 18.0429 11.73 18.1391 11.0701 18.0701Z" fill="url(#paint8_linear_416_3829)"/>
<path d="M4.4502 2.78978C4.4502 2.78978 14.6802 -0.640212 23.0102 0.579788C24.0102 1.40979 29.2902 12.6498 29.2902 12.6498C29.2902 12.6498 17.5102 14.8298 13.0102 17.7898C9.50592 13.1904 6.62746 8.14641 4.4502 2.78978V2.78978Z" fill="url(#paint9_linear_416_3829)"/>
<path d="M3.60059 2.91964C3.60059 2.91964 5.47058 1.54964 12.4706 0.669637C19.4706 -0.210363 22.2506 0.37964 23.0106 0.57964C19.4364 0.377052 15.8508 0.574946 12.3206 1.16964C7.08059 2.16964 4.45059 2.78963 4.45059 2.78963L3.60059 2.91964Z" fill="url(#paint10_linear_416_3829)"/>
<g style="mix-blend-mode:multiply" opacity="0.3">
<path d="M12.5301 28.9098C12.5301 28.9098 25.5301 35.6398 29.2401 37.5298C31.3401 38.5998 31.7001 28.8498 33.0701 25.2098L12.3701 24.0298L12.5301 28.9098Z" fill="#E32F55"/>
</g>
<path d="M32.0008 23.59L33.0008 25.21C33.0008 25.21 19.8108 26.8 16.2108 26.69C12.6108 26.58 1.53077 22.78 1.05077 22.16C0.704685 21.3907 0.537178 20.5531 0.560784 19.71L32.0008 23.59Z" fill="url(#paint11_linear_416_3829)"/>
<path d="M13.5305 17.6899C13.5305 17.6899 1.85045 19.2099 0.530455 19.6899C-0.789546 20.1699 9.95047 24.3699 14.7305 25.1899C19.5105 26.0099 31.9505 23.5699 31.9505 23.5699C31.9505 23.5699 22.5305 21.0499 13.5305 17.6899Z" fill="url(#paint12_linear_416_3829)"/>
<g style="mix-blend-mode:multiply" opacity="0.5">
<path d="M15.8299 26.1898C15.7399 25.7598 23.1899 25.2498 26.3099 24.6798C28.0997 24.2983 29.9206 24.0807 31.7499 24.0298C32.2699 24.0298 33.0199 25.2098 33.0199 25.2098C33.0199 25.2098 22.9399 26.3798 17.4699 26.6798C16.0799 26.7598 16.6699 26.1498 15.8299 26.1898Z" fill="#E32F55"/>
</g>
<g style="mix-blend-mode:multiply" opacity="0.5">
<path d="M33.6902 24.9998C32.9102 25.0498 41.3702 12.6998 44.1102 10.7398C46.8502 8.7798 59.0302 7.6098 59.4602 7.7398C59.8902 7.8698 52.6702 18.3098 52.1102 19.0198C51.5502 19.7298 39.7702 24.6098 33.6902 24.9998Z" fill="#BE2F55"/>
</g>
<g style="mix-blend-mode:multiply" opacity="0.5">
<path d="M31.2907 38.9497C31.1707 41.2697 47.8207 32.4897 49.8007 27.4097C51.7807 22.3297 52.0207 19.2397 51.8007 19.2197C48.7847 20.5428 45.6886 21.6751 42.5307 22.6097C37.5307 23.9497 33.7607 24.6097 32.9907 25.2097C32.2207 25.8097 31.2907 38.9497 31.2907 38.9497Z" fill="#E32F55"/>
</g>
<g style="mix-blend-mode:multiply" opacity="0.5">
<path d="M49.29 33.3496C48.74 35.4896 48.29 37.0696 48.12 37.3496C47.57 38.4896 32.77 43.2096 30.52 43.3496C28.27 43.4896 16.52 39.4596 14.66 38.0596C14.1791 37.1192 13.858 36.1054 13.71 35.0596C13.84 35.3396 14.97 37.6796 19.94 40.1096C23.4574 41.7325 27.2766 42.5978 31.15 42.6496C31.56 42.6496 45.46 38.8096 47.23 37.1796C48.2012 36.0777 48.906 34.7673 49.29 33.3496V33.3496Z" fill="#BE2F55"/>
</g>
<g style="mix-blend-mode:multiply" opacity="0.2">
<path d="M4.45041 2.79002C3.75041 3.01002 9.69038 10.34 18.7404 10.52C27.7904 10.7 23.7404 1.27003 23.0104 0.860026C22.2804 0.450026 13.4004 -0.0299814 4.45041 2.79002Z" fill="#F57755"/>
</g>
<g style="mix-blend-mode:multiply" opacity="0.2">
<path d="M14.8306 24.4599C11.2106 24.0299 9.33058 22.7199 9.24058 21.0599C9.15058 19.3999 26.9006 22.7399 29.0406 23.1799C31.1806 23.6199 18.8906 25.0699 14.8306 24.4599Z" fill="#FF738D"/>
</g>
<g style="mix-blend-mode:multiply" opacity="0.5">
<path d="M3.28027 3.56981C3.85027 2.66981 4.55027 4.18982 7.03027 8.44982C9.51027 12.7098 11.7603 16.3498 11.7603 16.3498C11.7603 16.3498 7.12027 13.4798 3.28027 3.56981Z" fill="#E32F55"/>
</g>
<g style="mix-blend-mode:multiply" opacity="0.2">
<path d="M30.8102 11.9098C30.6902 13.4398 37.4902 7.61976 43.5902 5.46976C49.6902 3.31976 54.5902 4.02977 54.7902 3.31977C54.9902 2.60977 37.0802 2.11977 35.9002 2.25977C34.7202 2.39977 31.0302 8.92976 30.8102 11.9098Z" fill="#FF738D"/>
</g>
<g style="mix-blend-mode:multiply" opacity="0.5">
<path d="M28.8207 12.7401L30.8207 12.8302L32.8207 6.17017L30.1807 12.5201L29.3207 12.6501L25.2207 4.41016L28.8207 12.7401Z" fill="#E32F55"/>
</g>
<g style="mix-blend-mode:multiply" opacity="0.3">
<path d="M35.2305 1.88965C35.2305 1.88965 43.8304 2.61965 47.5504 2.88965C50.4497 3.02547 53.3552 2.93518 56.2404 2.61963L35.2305 1.88965Z" fill="#E32F55"/>
</g>
<path d="M41.1104 9.84985C41.1104 9.84985 41.0504 10.2998 46.8604 9.58984C51.2282 8.9049 55.5232 7.81692 59.6904 6.33984C59.6904 6.33984 46.8904 7.71985 41.1104 9.84985Z" fill="#FFE355"/>
<g style="mix-blend-mode:multiply" opacity="0.5">
<path d="M14.6804 35.6299C14.2804 35.2099 13.8704 32.1999 14.2804 31.8299C14.6904 31.4599 18.8504 33.1699 19.2804 33.5399C19.7104 33.9099 19.6704 37.3699 19.5204 37.6899C19.3704 38.0099 15.1404 36.1199 14.6804 35.6299Z" fill="#BE2F55"/>
</g>
<path d="M14.4607 35.4097C14.0607 34.9897 13.6507 31.9797 14.0607 31.6097C14.4707 31.2397 18.6307 32.9497 19.0607 33.3197C19.4907 33.6897 19.4507 37.1397 19.3007 37.4697C19.1507 37.7997 14.9207 35.8697 14.4607 35.4097Z" fill="#FFE5D2"/>
<defs>
<linearGradient id="paint0_linear_416_3829" x1="43.09" y1="17.65" x2="43.09" y2="1.89" gradientUnits="userSpaceOnUse">
<stop stop-color="#FABB36"/>
<stop offset="1" stop-color="#F69C13"/>
</linearGradient>
<linearGradient id="paint1_linear_416_3829" x1="54.3006" y1="18.8099" x2="54.3006" y2="2.6499" gradientUnits="userSpaceOnUse">
<stop stop-color="#DF7000"/>
<stop offset="1" stop-color="#EA4500"/>
</linearGradient>
<linearGradient id="paint2_linear_416_3829" x1="10.9199" y1="28.0299" x2="52.1099" y2="28.0299" gradientUnits="userSpaceOnUse">
<stop stop-color="#FAAB00"/>
<stop offset="1" stop-color="#F77700"/>
</linearGradient>
<linearGradient id="paint3_linear_416_3829" x1="10.9298" y1="18.81" x2="51.3498" y2="18.81" gradientUnits="userSpaceOnUse">
<stop stop-color="#FABB36"/>
<stop offset="1" stop-color="#F69C13"/>
</linearGradient>
<linearGradient id="paint4_linear_416_3829" x1="31.0004" y1="23.5899" x2="31.0004" y2="13.3398" gradientUnits="userSpaceOnUse">
<stop stop-color="#FFFF00"/>
<stop offset="1" stop-color="#FFCC00"/>
</linearGradient>
<linearGradient id="paint5_linear_416_3829" x1="31.7501" y1="17.52" x2="41.6701" y2="17.52" gradientUnits="userSpaceOnUse">
<stop stop-color="#FA9300"/>
<stop offset="1" stop-color="#FC9C00"/>
</linearGradient>
<linearGradient id="paint6_linear_416_3829" x1="46.6307" y1="25.21" x2="46.6307" y2="6.72998" gradientUnits="userSpaceOnUse">
<stop stop-color="#DF7000"/>
<stop offset="1" stop-color="#EA4500"/>
</linearGradient>
<linearGradient id="paint7_linear_416_3829" x1="50.6104" y1="10.6099" x2="50.6104" y2="6.33984" gradientUnits="userSpaceOnUse">
<stop stop-color="#FABB36"/>
<stop offset="1" stop-color="#FFD627"/>
</linearGradient>
<linearGradient id="paint8_linear_416_3829" x1="3.26012" y1="10.3801" x2="13.0101" y2="10.3801" gradientUnits="userSpaceOnUse">
<stop stop-color="#FA9300"/>
<stop offset="1" stop-color="#EA6A00"/>
</linearGradient>
<linearGradient id="paint9_linear_416_3829" x1="16.8702" y1="17.7898" x2="16.8702" y2="0.319788" gradientUnits="userSpaceOnUse">
<stop stop-color="#FA9A36"/>
<stop offset="1" stop-color="#F69C13"/>
</linearGradient>
<linearGradient id="paint10_linear_416_3829" x1="13.3106" y1="2.91964" x2="13.3106" y2="0.199638" gradientUnits="userSpaceOnUse">
<stop stop-color="#FA9300"/>
<stop offset="1" stop-color="#FFBB00"/>
</linearGradient>
<linearGradient id="paint11_linear_416_3829" x1="16.8008" y1="26.7" x2="16.8008" y2="19.71" gradientUnits="userSpaceOnUse">
<stop stop-color="#DF7000"/>
<stop offset="1" stop-color="#EA4500"/>
</linearGradient>
<linearGradient id="paint12_linear_416_3829" x1="0.470455" y1="21.5399" x2="32.0005" y2="21.5399" gradientUnits="userSpaceOnUse">
<stop stop-color="#FABB36"/>
<stop offset="1" stop-color="#FFC227"/>
</linearGradient>
</defs>
</svg>
