<svg width="49" height="56" viewBox="0 0 49 56" fill="none" xmlns="http://www.w3.org/2000/svg">
<path d="M48.0604 22.0296C47.7032 23.7961 47.0435 25.4877 46.1104 27.0296V27.0296C44.9804 29.2096 43.4504 31.8396 41.7204 34.6096C35.6404 44.3496 27.1104 55.8696 25.1404 55.7396C23.4804 55.6296 17.3104 50.4696 11.6304 44.8896C6.63044 39.9596 1.96043 34.6896 1.11043 32.2396C0.836925 31.4092 0.63945 30.5557 0.520437 29.6896C-0.479563 23.1396 0.260436 11.1296 1.66044 9.85964C3.27044 8.38964 18.4704 1.28963 20.1404 0.699634C22.3504 -0.0703655 48.1304 17.2896 48.0604 22.0296Z" fill="url(#paint0_linear_415_3825)"/>
<g style="mix-blend-mode:multiply" opacity="0.3">
<path d="M3.84019 11.1199C2.36019 13.4899 0.840195 24.0099 3.27019 30.5599C5.70019 37.1099 13.5002 40.5599 19.9502 42.3899C26.4002 44.2199 15.2502 32.8799 22.2202 27.0499C29.1902 21.2199 30.4002 21.0499 29.3602 31.5999C28.3202 42.1499 44.4402 39.7699 45.7502 22.1799C46.2902 14.9199 23.5302 1.96987 20.4702 1.92987C17.4102 1.88987 5.61019 8.29988 3.84019 11.1199Z" fill="#D93B66"/>
</g>
<g style="mix-blend-mode:multiply" opacity="0.3">
<path d="M5.26016 10.1699C0.110161 19.1699 14.4302 21.5399 23.9002 22.2599C33.3702 22.9799 42.9002 20.8999 36.9002 13.6699C30.9002 6.43986 25.0002 1.66986 18.6402 2.29986C12.2802 2.92986 5.26016 10.1699 5.26016 10.1699Z" fill="#963B66"/>
</g>
<path style="mix-blend-mode:screen" d="M22.5303 52.5302C19.5303 51.3102 4.73034 39.5902 3.89034 33.3102C3.05034 27.0302 12.1603 37.4402 15.8303 39.8402C19.5003 42.2402 15.4103 35.0702 18.3503 25.8402C21.2903 16.6102 29.7103 27.9002 33.1103 31.6402C36.5103 35.3802 39.7803 26.7802 42.3903 29.4402C45.0003 32.1002 30.3203 55.6802 22.5303 52.5302Z" fill="url(#paint1_linear_415_3825)"/>
<g style="mix-blend-mode:multiply" opacity="0.3">
<path d="M5.2605 27.4799C4.5805 20.9499 16.4705 22.6899 17.3405 25.7999C18.2105 28.9099 18.3405 39.2299 15.4205 38.6899C12.5005 38.1499 5.7405 31.9699 5.2605 27.4799Z" fill="#963B66"/>
</g>
<g style="mix-blend-mode:multiply" opacity="0.3">
<path d="M43.6303 19.6098C39.3303 17.3698 33.2503 22.4698 32.5703 33.3098C31.8903 44.1498 44.1303 29.2098 45.7803 24.7998C47.4303 20.3898 43.6303 19.6098 43.6303 19.6098Z" fill="#963B66"/>
</g>
<g style="mix-blend-mode:multiply" opacity="0.5">
<path d="M1.78997 31.0298C2.43997 33.3398 1.78998 18.5798 7.22998 12.4897C12.67 6.39975 13.23 18.3998 22.13 19.9698C31.03 21.5398 37.81 16.0197 31.28 11.2697C24.75 6.51975 30.07 9.26977 38.02 14.0098C45.97 18.7498 40.58 26.5498 36.52 38.8898C34.29 45.6798 46.91 26.3498 46.74 21.7298C46.57 17.1098 25.31 2.57976 20.26 1.93976C15.21 1.29976 3.36997 8.72976 1.78997 11.7498C0.209975 14.7698 0.409975 26.1398 1.78997 31.0298Z" fill="#820045"/>
</g>
<g style="mix-blend-mode:darken">
<path d="M28.5302 50.2099C26.0302 50.8199 20.1602 32.99 21.9902 21.8C23.8202 10.61 33.7002 18.22 41.4802 20.86C49.2602 23.5 33.5302 48.9799 28.5302 50.2099Z" fill="#FF001A"/>
</g>
<g style="mix-blend-mode:soft-light">
<path d="M23.8904 8.89973C21.0004 8.69973 13.2504 17.8097 13.2004 21.0897C13.1504 24.3697 22.9404 40.9497 23.8904 41.9897C24.8404 43.0297 35.8904 20.7597 36.2004 18.3897C36.5104 16.0197 23.8904 8.89973 23.8904 8.89973Z" fill="white"/>
</g>
<path style="mix-blend-mode:screen" opacity="0.72" d="M23.8904 8.89973C21.0004 8.69973 13.2504 17.8097 13.2004 21.0897C13.1504 24.3697 22.9404 40.9497 23.8904 41.9897C24.8404 43.0297 35.8904 20.7597 36.2004 18.3897C36.5104 16.0197 23.8904 8.89973 23.8904 8.89973Z" fill="url(#paint2_linear_415_3825)"/>
<g style="mix-blend-mode:screen" opacity="0.92">
<path d="M23.8904 8.89973C21.0004 8.69973 13.2504 17.8097 13.2004 21.0897C13.1504 24.3697 22.9404 40.9497 23.8904 41.9897C24.8404 43.0297 35.8904 20.7597 36.2004 18.3897C36.5104 16.0197 23.8904 8.89973 23.8904 8.89973Z" fill="#FF8390"/>
</g>
<path style="mix-blend-mode:screen" opacity="0.72" d="M20.1299 0.719817C20.8099 0.499817 23.0399 7.64982 23.0399 8.12982C23.0399 8.60982 15.8999 15.4898 13.8099 18.3898C11.7199 21.2898 1.73994 11.5298 1.80994 10.3898C1.87994 9.24983 17.2599 1.66982 20.1299 0.719817Z" fill="url(#paint3_linear_415_3825)"/>
<g style="mix-blend-mode:multiply" opacity="0.5">
<path d="M1.10059 32.2596C2.55059 27.9496 13.2006 19.5196 13.2006 20.2596C13.2006 20.9996 16.2006 29.2596 23.8906 41.9396C23.8906 41.9396 25.5406 54.6795 25.1406 55.7095C24.7406 56.7395 10.5306 45.4596 1.10059 32.2596Z" fill="#B80066"/>
</g>
<g style="mix-blend-mode:multiply" opacity="0.5">
<path d="M36.2607 17.6497C36.9607 18.8997 47.0907 22.3298 47.7707 22.1198C48.4507 21.9098 41.4707 13.5998 32.7707 8.11975C24.0707 2.63975 21.6107 1.32977 21.4307 1.25977C22.1679 3.88367 23.1523 6.43172 24.3707 8.86975C25.4607 10.5398 36.2607 17.6497 36.2607 17.6497Z" fill="#960066"/>
</g>
<path style="mix-blend-mode:screen" opacity="0.72" d="M25.7107 55.5799C25.1907 54.4199 25.0707 43.6599 27.0907 38.6899C29.1107 33.7199 35.2307 21.0199 37.2807 20.3099C39.3307 19.5999 47.4807 23.0199 47.4807 23.0199C47.4807 23.0199 38.9607 42.8799 25.7107 55.5799Z" fill="url(#paint4_linear_415_3825)"/>
<path style="mix-blend-mode:screen" d="M25.7107 55.5799C25.1907 54.4199 25.0707 43.6599 27.0907 38.6899C29.1107 33.7199 35.2307 21.0199 37.2807 20.3099C39.3307 19.5999 47.4807 23.0199 47.4807 23.0199C47.4807 23.0199 38.9607 42.8799 25.7107 55.5799Z" fill="url(#paint5_linear_415_3825)"/>
<path style="mix-blend-mode:screen" opacity="0.72" d="M1.82989 10.4099C2.45989 8.55988 13.8299 19.1299 13.5199 19.7199C9.87464 23.2861 6.03191 26.6447 2.00988 29.7799C0.64988 30.5199 -1.04011 18.8099 1.82989 10.4099Z" fill="url(#paint6_linear_415_3825)"/>
<path style="mix-blend-mode:screen" d="M46.1105 27.0498C41.0505 36.8498 27.6605 55.9298 25.1105 55.7598C21.9905 55.5398 2.8805 37.4798 1.1105 32.2598C0.836996 31.4294 0.639521 30.5759 0.520508 29.7098C1.29051 28.9098 1.7605 29.5598 2.1505 30.0098C2.5405 30.4598 2.0905 33.0098 2.4705 34.1098C2.8505 35.2098 13.3805 46.1098 16.9605 48.9398C20.5405 51.7698 24.4905 50.9398 25.2105 51.6498C25.9305 52.3598 29.0905 50.2298 32.8105 46.1098C36.5305 41.9898 34.3905 41.3698 36.4405 39.3998C38.4905 37.4298 45.8805 27.4098 46.1105 27.0498Z" fill="url(#paint7_linear_415_3825)"/>
<g style="mix-blend-mode:screen" opacity="0.5">
<path d="M31.71 13.71C31.71 13.71 36.02 16.85 36.98 17.8C37.94 18.75 44.36 21.24 44.36 21.24C44.36 21.24 37.96 19.01 37.36 18.92C36.76 18.83 34.9 21.81 34.9 21.81C34.9 21.81 36.4 18.27 36.25 17.65C36.1 17.03 31.71 13.71 31.71 13.71Z" fill="#FF9790"/>
</g>
<g style="mix-blend-mode:darken">
<path d="M6.40042 26.21C3.27042 30.56 10.0204 41.29 14.3304 45.08C18.6404 48.87 22.1104 42.46 23.3304 44.55C24.5504 46.64 22.7604 41.46 19.1704 34.45C15.5804 27.44 13.9804 21.93 12.4604 21.81C10.9404 21.69 6.40042 26.21 6.40042 26.21Z" fill="#FF001A"/>
</g>
<g style="mix-blend-mode:screen">
<path d="M19.8105 11.2695C19.8105 11.2695 14.5505 17.2696 13.8105 17.7596C13.0705 18.2496 12.2705 17.5095 12.1005 17.8995C11.8325 18.8756 11.7311 19.8898 11.8005 20.8995C12.1824 21.4692 12.6515 21.9754 13.1905 22.3995C13.5505 22.6795 17.7305 31.6295 18.7305 33.7695C19.2005 34.7695 21.9905 38.8396 23.3505 43.6696C24.8505 48.9896 24.9305 55.0896 25.1805 55.7596L25.0405 43.6295L26.4205 38.7095C26.4205 38.7095 25.1705 40.7095 24.0905 40.4695C23.0105 40.2295 14.0905 24.2096 13.8305 22.2596C13.5005 19.3296 15.8305 16.0595 15.8305 16.0595L19.8105 11.2695Z" fill="#FF77BB"/>
</g>
<g style="mix-blend-mode:screen" opacity="0.5">
<path d="M3.06984 9.81966C2.49984 10.3397 12.2898 17.6897 13.1998 17.7597C14.1098 17.8297 22.0398 9.33965 22.8898 8.39965C23.7398 7.45965 20.9498 1.61967 20.3898 1.22967C19.8298 0.839667 4.17984 8.80966 3.06984 9.81966Z" fill="#FF5793"/>
</g>
<path d="M13.5302 22.41C11.8102 23.29 11.8702 18.97 12.1902 18.41C13.304 17.4166 14.5056 16.5263 15.7802 15.75C15.7802 15.75 13.8002 22.26 13.5302 22.41Z" fill="white"/>
<path d="M35.1201 16.26C34.7501 16.14 35.7801 18.39 36.1201 18.78C36.4601 19.17 37.4301 18.64 37.4501 18.39C36.7402 17.6102 35.9603 16.8972 35.1201 16.26V16.26Z" fill="white"/>
<path style="mix-blend-mode:screen" d="M8.66992 41.5096C8.66992 41.5096 15.1799 37.4196 19.0499 39.3996C22.9199 41.3796 25.1799 55.3396 24.6999 55.5796C24.2199 55.8196 13.9299 49.0496 8.66992 41.5096Z" fill="url(#paint8_linear_415_3825)"/>
<g style="mix-blend-mode:multiply" opacity="0.5">
<path d="M37.6105 20.05C36.2805 19.87 32.4705 28.94 32.4805 30.05C32.4905 31.16 44.9505 28.84 46.3605 25.5C47.7705 22.16 37.6105 20.05 37.6105 20.05Z" fill="#960066"/>
</g>
<g style="mix-blend-mode:multiply" opacity="0.5">
<path d="M11.3199 17.1501C11.1099 18.6701 5.78994 21.6501 3.38994 21.1501C0.98994 20.6501 0.64994 12.8901 1.38994 11.7201C2.12994 10.5501 11.3199 17.1501 11.3199 17.1501Z" fill="#960066"/>
</g>
<g style="mix-blend-mode:multiply" opacity="0.5">
<path d="M48.0604 22.0296C47.7032 23.7961 47.0435 25.4877 46.1104 27.0296V27.0296C44.9804 29.2096 43.4504 31.8396 41.7204 34.6096L41.1404 35.2496C41.4804 34.7896 47.2704 26.7196 46.2004 20.8496C45.0904 14.8496 23.1004 2.84962 21.1104 2.21962C18.2704 1.35962 3.67043 8.59963 1.83043 10.3796C-0.00956571 12.1596 0.420432 24.6196 1.50043 29.7796C2.58043 34.9396 12.0104 44.9896 12.0104 44.9896L11.6304 44.8896C6.63044 39.9596 1.96043 34.6896 1.11043 32.2396C0.836925 31.4092 0.63945 30.5557 0.520437 29.6896C-0.479563 23.1396 0.260436 11.1296 1.66044 9.85964C3.27044 8.38964 18.4704 1.28963 20.1404 0.699634C22.3504 -0.0703655 48.1304 17.2896 48.0604 22.0296Z" fill="#7A0033"/>
</g>
<path d="M16.5303 2.60005C16.1903 2.52005 19.8103 0.740042 20.2803 0.750042C20.7503 0.760042 21.9303 4.34006 21.8303 4.61006C21.7303 4.88006 20.0603 3.10005 18.8303 2.82005C18.0703 2.68904 17.3014 2.6155 16.5303 2.60005V2.60005Z" fill="#FFA9B3"/>
<g style="mix-blend-mode:multiply" opacity="0.5">
<path d="M18.0105 32.3198C14.4605 28.2098 21.0805 47.7898 23.0105 52.0698C24.9405 56.3498 23.2405 46.8898 23.0105 42.9598C22.7805 39.0298 18.0105 32.3198 18.0105 32.3198Z" fill="#EC0066"/>
</g>
<path d="M1.2002 32.5095C1.5002 29.7995 7.32019 39.7795 7.32019 39.7795L9.21019 42.2895L15.2102 48.1495C15.2102 48.1495 5.5902 41.2495 1.2002 32.5095Z" fill="#FF8D98"/>
<path d="M48.06 22.0298C47.2085 22.1179 46.4052 22.4672 45.76 23.0298C45.08 23.8498 43.52 30.3898 43.44 30.5698C43.36 30.7498 40.5 36.5698 40.5 36.5698C40.5 36.5698 46.07 28.9698 48.06 22.0298Z" fill="#FF8D98"/>
<path d="M1.65059 9.87979C1.23059 10.6198 3.86059 9.77979 4.65059 9.06979C5.44059 8.35979 7.65059 6.52979 7.65059 6.52979C7.65059 6.52979 2.16059 8.88979 1.65059 9.87979Z" fill="#FF8D98"/>
<path d="M23.2405 7.52014C22.8305 7.42014 21.8605 9.47014 22.0305 9.52014C22.2005 9.57014 25.0305 9.58016 25.1305 9.60016C24.6098 8.8149 23.9725 8.11351 23.2405 7.52014V7.52014Z" fill="white"/>
<path d="M1.61063 31.1698C1.10063 31.8898 1.52063 30.0198 1.83063 29.6598C2.28402 29.3039 2.7857 29.0144 3.32062 28.7998L1.61063 31.1698Z" fill="white"/>
<g style="mix-blend-mode:screen">
<path d="M13.5303 46.6901C13.5303 44.4601 24.1203 50.4601 25.0403 52.3101C25.9603 54.1601 25.5403 55.3101 25.1403 55.7601C24.7403 56.2101 16.9803 50.7701 13.5303 46.6901Z" fill="#FFC098"/>
</g>
<path d="M19.8602 35.4096C20.4302 35.2296 22.2002 39.6596 22.0102 40.0796C21.8202 40.4996 17.4102 38.8596 19.8602 35.4096Z" fill="url(#paint9_linear_415_3825)"/>
<g style="mix-blend-mode:multiply" opacity="0.5">
<path d="M19.1306 37.3196C19.0506 38.3196 20.7806 39.0796 21.3706 39.0596C21.9606 39.0396 21.0906 36.8396 20.4806 36.0596C19.8706 35.2796 19.2206 36.1796 19.1306 37.3196Z" fill="#960066"/>
</g>
<path d="M19.4003 38.4699C19.3303 38.3399 21.2703 39.3399 21.5603 39.2699C21.8503 39.1999 21.2003 37.3799 21.2003 37.3799C21.6322 38.2515 21.9353 39.1812 22.1003 40.1399C22.0203 40.7699 19.8803 39.4099 19.4003 38.4699Z" fill="#FF5E66"/>
<path d="M32.6901 26.9397C32.3901 26.2997 29.9701 28.4797 30.6301 30.3197C31.2901 32.1597 33.3301 28.3297 32.6901 26.9397Z" fill="url(#paint10_linear_415_3825)"/>
<g style="mix-blend-mode:multiply" opacity="0.5">
<path d="M31.1101 27.9598C30.1701 29.5298 31.6701 30.0898 32.4801 28.8198C33.2901 27.5498 32.4801 26.8198 32.3001 26.8198C31.8351 27.1213 31.4313 27.5081 31.1101 27.9598V27.9598Z" fill="#960066"/>
</g>
<path d="M30.7301 30.5398C30.5201 29.5898 32.1001 29.6998 32.3501 29.4398C32.6001 29.1798 31.1801 31.5798 30.7301 30.5398Z" fill="#FF88A4"/>
<g style="mix-blend-mode:screen">
<path d="M7.89033 35.2902C8.11033 32.6102 9.89033 36.5202 9.89033 37.7702C9.89033 39.0202 7.53033 39.4102 7.89033 35.2902Z" fill="#FF007C"/>
<path d="M10.0503 37.0498C9.93033 37.0498 10.5103 38.7198 10.9203 38.5798C11.3303 38.4398 10.1803 37.0698 10.0503 37.0498Z" fill="#FF007C"/>
<path d="M9.08032 29.7998C9.08032 30.0198 10.1903 32.1998 10.7203 31.7998C11.2503 31.3998 9.25032 28.8398 9.08032 29.7998Z" fill="#FF007C"/>
<path d="M3.05036 18.4102C2.32036 19.8402 2.61035 23.5302 3.79035 24.5102C4.97035 25.4902 4.47035 20.4402 4.65035 18.3902C4.83035 16.3402 3.45036 17.6102 3.05036 18.4102Z" fill="#FF007C"/>
<path d="M8.67037 12.3201C8.28037 13.6701 10.5604 12.7501 10.8004 11.0401C11.0404 9.33011 8.97037 11.2501 8.67037 12.3201Z" fill="#FF007C"/>
<path d="M29.6004 45.67C28.2304 46.05 29.4004 42.99 29.9304 42.46C30.4604 41.93 30.2504 45.49 29.6004 45.67Z" fill="#FF007C"/>
<path d="M30.2204 46.5099C29.5104 46.3999 30.7704 45.2199 31.1004 45.4399C31.4304 45.6599 30.6504 46.5699 30.2204 46.5099Z" fill="#FF007C"/>
<path d="M40.0504 16.8501C39.6904 16.8501 40.5404 18.8501 41.3604 18.5801C42.1804 18.3101 40.6704 16.8501 40.0504 16.8501Z" fill="#FF007C"/>
<path d="M34.4404 30.13C34.7004 28.87 37.0804 26.87 38.2204 27.03C39.3604 27.19 35.4203 31.49 34.8703 31.71C34.3203 31.93 34.2104 31.21 34.4404 30.13Z" fill="#FF007C"/>
<path d="M37.4203 32.5601C37.0403 32.3701 37.9003 31.9401 38.2603 31.7601C38.6203 31.5801 37.8203 32.7501 37.4203 32.5601Z" fill="#FF007C"/>
<path d="M28.3704 8.04001C28.3704 8.46001 27.6304 7.81 27.3704 7.53C27.1104 7.25 28.4204 7.60001 28.3704 8.04001Z" fill="#FF007C"/>
</g>
<defs>
<linearGradient id="paint0_linear_415_3825" x1="24.0504" y1="55.7596" x2="24.0504" y2="0.699635" gradientUnits="userSpaceOnUse">
<stop stop-color="#FF7A00"/>
<stop offset="0.56" stop-color="#EB0029"/>
<stop offset="1" stop-color="#A1002C"/>
</linearGradient>
<linearGradient id="paint1_linear_415_3825" x1="23.2203" y1="52.8202" x2="23.2203" y2="22.2302" gradientUnits="userSpaceOnUse">
<stop stop-color="#FF7A00"/>
<stop offset="0.56" stop-color="#EB0029"/>
<stop offset="1" stop-color="#A1002C"/>
</linearGradient>
<linearGradient id="paint2_linear_415_3825" x1="24.7004" y1="42.0197" x2="24.7004" y2="8.88972" gradientUnits="userSpaceOnUse">
<stop offset="0.24"/>
<stop offset="0.99" stop-color="#FF86A4"/>
</linearGradient>
<linearGradient id="paint3_linear_415_3825" x1="12.4399" y1="18.9198" x2="12.4399" y2="0.719816" gradientUnits="userSpaceOnUse">
<stop offset="0.24"/>
<stop offset="0.99" stop-color="#FF86A4"/>
</linearGradient>
<linearGradient id="paint4_linear_415_3825" x1="36.4307" y1="55.5799" x2="36.4307" y2="20.2099" gradientUnits="userSpaceOnUse">
<stop offset="0.01" stop-color="#FF7200"/>
<stop offset="0.76"/>
</linearGradient>
<linearGradient id="paint5_linear_415_3825" x1="36.4307" y1="55.5799" x2="36.4307" y2="20.2099" gradientUnits="userSpaceOnUse">
<stop offset="0.02" stop-color="#FF2CFE"/>
<stop offset="1"/>
</linearGradient>
<linearGradient id="paint6_linear_415_3825" x1="0.259884" y1="19.9899" x2="13.5299" y2="19.9899" gradientUnits="userSpaceOnUse">
<stop offset="0.01" stop-color="#FF86A4"/>
<stop offset="0.76"/>
</linearGradient>
<linearGradient id="paint7_linear_415_3825" x1="23.3105" y1="55.7598" x2="23.3105" y2="27.0498" gradientUnits="userSpaceOnUse">
<stop offset="0.02" stop-color="#FF1400"/>
<stop offset="1"/>
</linearGradient>
<linearGradient id="paint8_linear_415_3825" x1="16.7199" y1="55.5896" x2="16.7199" y2="38.8596" gradientUnits="userSpaceOnUse">
<stop offset="0.02" stop-color="#FF2CFE"/>
<stop offset="1"/>
</linearGradient>
<linearGradient id="paint9_linear_415_3825" x1="20.5702" y1="40.1396" x2="20.5702" y2="35.3896" gradientUnits="userSpaceOnUse">
<stop stop-color="#FF134B"/>
<stop offset="1" stop-color="#97003B"/>
</linearGradient>
<linearGradient id="paint10_linear_415_3825" x1="31.6601" y1="30.8097" x2="31.6601" y2="26.8297" gradientUnits="userSpaceOnUse">
<stop stop-color="#FF134B"/>
<stop offset="1" stop-color="#97003B"/>
</linearGradient>
</defs>
</svg>
