<svg width="59" height="67" viewBox="0 0 59 67" fill="none" xmlns="http://www.w3.org/2000/svg">
<path d="M35.209 34.7243C35.209 34.7243 41.5358 49.9619 41.1337 53.8671C41.075 54.0159 41.0793 54.1682 41.0539 54.2871C40.4439 55.875 39.7327 57.4221 38.9244 58.9188V58.9188L38.6483 57.8207L33.5838 38.3509L35.209 34.7243Z" fill="url(#paint0_linear_409_2808)"/>
<path d="M15.8743 45.1105C14.0739 46.9477 25.3886 51.9198 28.6591 51.996C31.9296 52.0722 31.1026 47.8216 31.1026 47.8216L33.8305 53.9838L24.0371 56.5144L8.09886 49.1473L13.1845 43.2638L15.8743 45.1105Z" fill="url(#paint1_linear_409_2808)"/>
<path d="M2.96008 44.1621C3.99027 41.9977 5.23715 39.9433 6.68161 38.0303C8.42915 36.0002 16.0658 32.8869 25.8817 31.6337L24.3542 35.9116L2.96008 44.1621Z" fill="url(#paint2_linear_409_2808)"/>
<path d="M33.5962 37.0659C33.5048 37.4262 33.5194 37.8053 33.6383 38.1576C34.4736 41.7879 40.1235 51.4688 39.5461 56.8529C39.4937 57.5622 39.2775 58.2497 38.9145 58.8613C38.555 59.3985 38.0788 59.8475 37.5214 60.1748C36.964 60.5021 36.3399 60.6992 35.6956 60.7514C30.8395 61.5328 22.8451 59.8604 15.8384 56.9116C7.18515 53.259 0.120323 47.707 3.5148 43.1662C9.69596 34.7801 24.7355 36.4169 25.2614 34.8398L22.6065 43.1989C22.6065 43.1989 12.0122 44.7899 13.4171 48.3118C14.822 51.8337 29.1903 55.7428 30.9455 53.3393C32.7006 50.9359 29.9857 44.3596 29.9857 44.3596L33.5962 37.0659Z" fill="url(#paint3_linear_409_2808)"/>
<path d="M39.3662 27.7327C39.3662 27.7327 49.4704 34.8179 49.8408 34.9963C50.2111 35.1748 52.8251 28.0359 52.8251 28.0359C52.8251 28.0359 48.38 25.6791 48.4387 25.5303C48.5906 25.0533 48.8093 24.6003 49.0882 24.1847C49.2549 24.0893 53.5333 26.5416 53.5333 26.5416C53.5333 26.5416 56.3298 20.7649 56.3379 20.4994C56.346 20.2338 44.9808 16.0159 44.9808 16.0159L39.3662 27.7327Z" fill="url(#paint4_linear_409_2808)"/>
<path d="M44.9701 15.9902L45.7608 13.8511C45.7608 13.8511 58.6221 15.0688 58.6659 15.3119C58.7097 15.5549 56.3198 20.4923 56.3198 20.4923L44.9701 15.9902Z" fill="url(#paint5_linear_409_2808)"/>
<path d="M21.5154 42.9938C22.5462 44.2578 23.9535 45.1599 25.5325 45.5686C27.1115 45.9773 28.7797 45.8713 30.2943 45.2661L44.8559 13.8268L34.8217 8.25293L21.5154 42.9938Z" fill="url(#paint6_linear_409_2808)"/>
<path d="M28.2856 23.1216L34.1586 7.75464L45.895 14.4091L39.3572 27.7289C39.3572 27.7289 33.3846 30.0585 28.2856 23.1216Z" fill="url(#paint7_linear_409_2808)"/>
<path d="M34.1583 7.75468C32.2861 10.972 44.1197 16.9445 45.8947 14.4091C47.2121 12.5425 36.2204 4.24684 34.1583 7.75468Z" fill="url(#paint8_linear_409_2808)"/>
<path d="M52.8251 28.0356L53.5147 26.5339C53.5147 26.5339 48.8356 23.7621 48.6295 23.7668C48.1578 24.1851 47.8542 24.7607 47.7752 25.3862C47.8716 25.7683 52.8251 28.0356 52.8251 28.0356Z" fill="url(#paint9_linear_409_2808)"/>
<g style="mix-blend-mode:multiply" opacity="0.3">
<path d="M27.8404 45.8456C27.8404 45.8456 31.1403 43.8048 34.0742 36.7814C36.0913 31.9442 37.0093 29.6189 36.8918 29.0994C36.7743 28.58 31.4245 29.0053 28.7433 23.7324C28.7433 23.7324 31.0911 28.3791 38.3316 28.0122L35.2015 34.743L37.1531 39.6848C37.1531 39.6848 37.7075 41.9572 37.0226 43.2564C36.3376 44.5557 35.6078 42.4829 34.7398 41.9037C33.8718 41.3245 30.87 46.8588 30.87 46.8588L30.3521 45.2568C29.5384 45.5427 28.6963 45.7402 27.8404 45.8456V45.8456Z" fill="#DE2E69"/>
</g>
<g style="mix-blend-mode:multiply" opacity="0.7">
<path d="M15.0037 36.5853C13.9973 35.3494 18.9198 32.8202 21.009 32.4301C23.0982 32.04 25.8855 31.6245 25.8855 31.6245C25.8855 31.6245 24.9939 34.8634 24.2544 35.1842C23.5149 35.5051 15.0037 36.5853 15.0037 36.5853Z" fill="#DE376D"/>
</g>
<g style="mix-blend-mode:multiply" opacity="0.7">
<path d="M39.4988 57.7911C39.4988 57.7911 40.4738 56.1656 38.8395 51.6178C37.2053 47.07 37.9769 45.633 38.512 45.2852C39.0471 44.9374 40.9738 50.923 41.1154 52.6883C41.2571 54.4536 39.4988 57.7911 39.4988 57.7911Z" fill="#DE376D"/>
</g>
<g style="mix-blend-mode:multiply" opacity="0.5">
<path d="M40.0559 28.2202C40.0559 28.2202 46.7283 18.0176 47.4013 17.3479C48.0742 16.6782 52.3015 17.6805 53.0104 16.7562C53.7193 15.832 45.7273 13.8811 45.7273 13.8811C45.7597 14.4515 45.6426 15.0204 45.3875 15.5316C45.0203 16.4618 39.3333 27.763 39.3333 27.763L40.0559 28.2202Z" fill="#DE376D"/>
</g>
<g style="mix-blend-mode:multiply" opacity="0.5">
<path d="M48.6295 23.7671L46.4887 22.5994C45.944 23.5518 45.4879 24.5521 45.1262 25.5879C45.2128 25.8586 48.0606 25.6712 48.0606 25.6712L52.2281 25.7898L48.6295 23.7671Z" fill="#DE376D"/>
</g>
<path d="M49.8409 34.9963C49.8409 34.9963 54.2508 27.9106 58.6842 15.3189L56.3381 20.4993L53.5334 26.5415L52.8439 28.0432L49.8409 34.9963Z" fill="#E53751"/>
<g style="mix-blend-mode:soft-light">
<path d="M28.5203 22.5266C28.2853 23.1219 31.0086 26.2182 32.7583 26.7154C34.5079 27.2126 38.3993 15.5035 38.3582 14.6272C38.3171 13.7509 34.8166 11.2616 34.0882 9.92047C33.3598 8.5793 28.5203 22.5266 28.5203 22.5266Z" fill="#FFD377"/>
</g>
<g style="mix-blend-mode:soft-light">
<path d="M29.0401 24.9139C28.5929 24.5761 22.0039 41.7569 21.9239 42.5316C21.8438 43.3063 24.0744 45.0362 24.8618 45.0568C25.6493 45.0774 32.2987 28.9419 31.9844 28.0222C31.6702 27.1026 29.0401 24.9139 29.0401 24.9139Z" fill="#FFD377"/>
</g>
<g style="mix-blend-mode:soft-light">
<path d="M23.0648 36.1016C23.431 36.1816 21.5191 42.5226 20.8829 43.0993C20.2467 43.6759 14.2922 43.8625 13.1561 46.8221C12.02 49.7816 22.1086 53.0118 22.7724 54.0264C23.4362 55.0411 21.9937 58.3957 21.4542 58.5912C20.9147 58.7868 1.70866 51.9358 3.73982 44.4486C5.77099 36.9614 22.3437 35.9674 23.0648 36.1016Z" fill="#FFD377"/>
</g>
<g style="mix-blend-mode:multiply" opacity="0.7">
<path d="M15.1996 49.8973C15.1996 49.8973 20.6557 52.4168 22.6178 52.2668C24.5799 52.1168 16.0001 47.0525 15.5899 46.267C15.1797 45.4815 13.2327 46.5191 13.3203 47.4137C13.4079 48.3084 15.1996 49.8973 15.1996 49.8973Z" fill="#DE376D"/>
</g>
<g style="mix-blend-mode:multiply" opacity="0.2">
<path d="M25.6504 45.648C24.8549 45.0759 31.4891 30.504 32.0923 28.7855C32.6955 27.0669 34.0813 28.4311 34.0302 29.0237C33.979 29.6163 26.8217 44.7235 26.3803 45.2696C25.939 45.8157 25.6504 45.648 25.6504 45.648Z" fill="#F42774"/>
</g>
<g style="mix-blend-mode:multiply" opacity="0.2">
<path d="M33.8306 26.859C33.5589 27.5473 35.5049 27.5199 35.9278 27.4289C36.3508 27.3378 41.3522 15.9487 41.2164 15.4758C41.0806 15.0029 39.4482 14.1542 39.1934 14.0644C38.9386 13.9745 36.4981 20.8916 33.8306 26.859Z" fill="#F42774"/>
</g>
<g style="mix-blend-mode:multiply" opacity="0.2">
<path d="M21.7448 58.781C22.9084 59.3207 24.1293 59.727 25.3843 59.9921C25.8602 60.0939 27.8526 55.1286 27.3868 54.7835C26.225 54.3122 24.9892 54.05 23.7362 54.0089C23.3078 54.1408 21.7448 58.781 21.7448 58.781Z" fill="#F42774"/>
</g>
<path d="M27.3281 54.0612C27.3281 54.0612 29.8978 53.5705 30.7191 52.4433C31.5404 51.3162 31.0296 47.599 31.0296 47.599C31.5609 49.1749 31.7371 50.8488 31.5457 52.5009C31.143 54.6104 27.3281 54.0612 27.3281 54.0612Z" fill="url(#paint10_linear_409_2808)"/>
<path d="M23.948 53.5549C23.948 53.5549 17.5047 52.0111 14.6871 50.243C11.8696 48.4749 13.0839 46.8148 14.0653 46.1809C14.0653 46.1809 13.1958 46.9127 13.8567 48.5068C14.5175 50.1008 23.948 53.5549 23.948 53.5549Z" fill="url(#paint11_linear_409_2808)"/>
<path d="M2.67209 45.5748C2.67209 45.5748 3.56493 41.3795 10.5086 38.6054C14.5197 37 18.7397 35.976 23.0406 35.5647C23.0406 35.5647 15.0268 36.1747 10.517 37.9852C6.00712 39.7957 2.8866 42.9072 2.67209 45.5748Z" fill="url(#paint12_linear_409_2808)"/>
<path d="M8.18899 39.0878C7.03018 39.899 10.4536 41.7665 13.7508 40.7674C17.048 39.7683 16.4863 36.6976 16.1681 36.5505C15.8499 36.4033 9.9032 37.9046 8.18899 39.0878Z" fill="white"/>
<path d="M30.5478 53.6659C30.4719 54.5391 31.876 53.7602 32.5247 53.0702C33.1734 52.3802 32.1057 50.7546 31.6313 50.5673C31.157 50.3801 30.6098 52.9916 30.5478 53.6659Z" fill="white"/>
<path d="M24.656 35.2566C23.6709 38.7596 27.2773 34.6896 28.7238 30.9709C30.1703 27.2523 29.4946 25.2331 29.04 24.9139C28.5855 24.5947 24.656 35.2566 24.656 35.2566Z" fill="white"/>
<g style="mix-blend-mode:multiply" opacity="0.7">
<path d="M38.3385 27.9936L37.9053 29.0912C37.9053 29.0912 31.1149 29.2165 28.7689 23.7212C29.9082 25.1443 31.3711 26.2745 33.0357 27.0177C34.7003 27.7608 36.5184 28.0955 38.3385 27.9936Z" fill="#DE376D"/>
</g>
<path d="M28.2853 23.1216C28.2853 23.1216 33.5114 28.5928 39.3663 27.7326C39.3663 27.7326 32.8311 29.6896 28.2853 23.1216Z" fill="url(#paint13_linear_409_2808)"/>
<path d="M35.33 10.8618C35.33 10.8618 38.7873 15.7208 43.334 15.0967C40.4485 14.1414 37.7431 12.71 35.33 10.8618V10.8618Z" fill="url(#paint14_linear_409_2808)"/>
<g style="mix-blend-mode:soft-light">
<path d="M50.621 27.9292C52.4379 28.9368 50.2511 34.4488 49.5787 34.4092C48.9063 34.3695 42.1888 30.0619 41.5965 28.839C41.0041 27.6161 46.8248 25.7532 47.9343 25.9655C49.0439 26.1778 50.621 27.9292 50.621 27.9292Z" fill="#FFD377"/>
</g>
<g style="mix-blend-mode:soft-light">
<path d="M46.1544 20.7792C45.8459 21.5606 53.3306 26.3215 53.7582 26.028C54.6194 24.4435 55.2163 22.7291 55.5254 20.9524C55.3343 20.5651 48.6064 17.6726 47.9117 17.6349C47.217 17.5972 46.1544 20.7792 46.1544 20.7792Z" fill="#FFD377"/>
</g>
<g style="mix-blend-mode:multiply" opacity="0.7">
<path d="M38.5493 12.9714C39.4608 13.3556 40.4599 13.4835 41.4388 13.3413C42.4176 13.1991 43.3391 12.7922 44.1036 12.1646C44.5787 11.6963 37.7094 6.27527 35.2354 7.39505C32.7614 8.51483 36.3811 11.9005 38.5493 12.9714Z" fill="#DE376D"/>
</g>
<g style="mix-blend-mode:multiply" opacity="0.7">
<path d="M41.1338 53.8674C41.075 54.0162 41.0794 54.1685 41.054 54.2875C40.444 55.8753 39.7327 57.4224 38.9245 58.9191V58.9191C38.565 59.4563 38.0888 59.9053 37.5314 60.2325C36.974 60.5598 36.3499 60.757 35.7056 60.8091C30.8494 61.5906 22.855 59.9182 15.8484 56.9694L15.7549 56.825C15.7549 56.825 28.4421 61.425 34.6817 60.2437C35.688 60.0768 36.6456 59.692 37.4876 59.1163C38.3295 58.5406 39.0355 57.7878 39.5561 56.9107C40.2989 56.0243 40.8376 54.9853 41.1338 53.8674V53.8674Z" fill="#DE376D"/>
</g>
<path d="M32.1297 14.2002C31.9145 15.4806 33.3982 14.2279 34.1719 13.2755C34.9457 12.3231 34.8136 10.6152 34.0896 10.2434C33.3655 9.87156 32.1297 14.2002 32.1297 14.2002Z" fill="white"/>
<path d="M44.1344 30.7977C42.3896 28.9263 47.044 30.753 47.441 32.3074C47.838 33.8617 45.323 32.0625 44.1344 30.7977Z" fill="white"/>
<g style="mix-blend-mode:multiply" opacity="0.7">
<path d="M33.6345 38.1668C33.6345 38.1668 34.5557 39.8637 35.8626 39.7668C37.1695 39.6699 35.2085 34.7243 35.2085 34.7243L33.6345 38.1668Z" fill="#DE376D"/>
</g>
<g style="mix-blend-mode:multiply" opacity="0.7">
<path d="M30.341 45.285L28.1515 45.6569C30.4478 43.3486 32.3615 40.689 33.8206 37.7782L30.341 45.285Z" fill="#DE376D"/>
</g>
<path d="M21.816 43.3493L22.7576 44.2048C22.6684 41.1203 23.3167 38.059 24.6485 35.2754C24.6485 35.2754 21.9754 41.6383 21.816 43.3493Z" fill="white"/>
<path d="M4.83025 41.5781C4.74089 41.9406 7.56083 38.8824 7.80636 38.5601C8.05188 38.2377 7.25978 38.011 7.25978 38.011C6.11349 38.9322 5.26767 40.174 4.83025 41.5781V41.5781Z" fill="white"/>
<path d="M36.364 28.9665C36.364 28.9665 32.2069 28.3038 30.1793 25.8691C30.8193 26.9103 31.7375 27.7519 32.8302 28.2992C33.923 28.8465 35.1469 29.0776 36.364 28.9665Z" fill="url(#paint15_linear_409_2808)"/>
<defs>
<linearGradient id="paint0_linear_409_2808" x1="43.2827" y1="49.667" x2="30.9567" y2="44.0151" gradientUnits="userSpaceOnUse">
<stop stop-color="#FF6A03"/>
<stop offset="0.95" stop-color="#FF3F00"/>
</linearGradient>
<linearGradient id="paint1_linear_409_2808" x1="33.4432" y1="54.8586" x2="10.3456" y2="44.2676" gradientUnits="userSpaceOnUse">
<stop stop-color="#FFFF04"/>
<stop offset="0.28" stop-color="#FF6A03"/>
<stop offset="0.95" stop-color="#FF3F00"/>
</linearGradient>
<linearGradient id="paint2_linear_409_2808" x1="21.8886" y1="41.3096" x2="7.33557" y2="34.6366" gradientUnits="userSpaceOnUse">
<stop offset="0.05" stop-color="#FF3F00"/>
<stop offset="0.72" stop-color="#FF6A03"/>
<stop offset="1" stop-color="#FFFF04"/>
</linearGradient>
<linearGradient id="paint3_linear_409_2808" x1="40.9783" y1="54.4522" x2="5.66371" y2="38.2594" gradientUnits="userSpaceOnUse">
<stop stop-color="#FFA200"/>
<stop offset="1" stop-color="#FFB82F"/>
</linearGradient>
<linearGradient id="paint4_linear_409_2808" x1="53.3021" y1="27.8148" x2="41.7578" y2="22.5214" gradientUnits="userSpaceOnUse">
<stop stop-color="#FFB82F"/>
<stop offset="1" stop-color="#FFA200"/>
</linearGradient>
<linearGradient id="paint5_linear_409_2808" x1="57.4219" y1="18.2077" x2="46.1412" y2="13.0352" gradientUnits="userSpaceOnUse">
<stop stop-color="#FF6A03"/>
<stop offset="0.95" stop-color="#FF3F00"/>
</linearGradient>
<linearGradient id="paint6_linear_409_2808" x1="37.3568" y1="30.2721" x2="26.9488" y2="25.4998" gradientUnits="userSpaceOnUse">
<stop stop-color="#FFA200"/>
<stop offset="1" stop-color="#FFB82F"/>
</linearGradient>
<linearGradient id="paint7_linear_409_2808" x1="42.6045" y1="21.6112" x2="30.3967" y2="16.0136" gradientUnits="userSpaceOnUse">
<stop stop-color="#FFA200"/>
<stop offset="1" stop-color="#FFB82F"/>
</linearGradient>
<linearGradient id="paint8_linear_409_2808" x1="46.1603" y1="13.8799" x2="33.9343" y2="8.27387" gradientUnits="userSpaceOnUse">
<stop offset="0.05" stop-color="#FF3F00"/>
<stop offset="1" stop-color="#FF6A03"/>
</linearGradient>
<linearGradient id="paint9_linear_409_2808" x1="53.2856" y1="27.0588" x2="47.9861" y2="24.6288" gradientUnits="userSpaceOnUse">
<stop stop-color="#FF6A03"/>
<stop offset="0.95" stop-color="#FF3F00"/>
</linearGradient>
<linearGradient id="paint10_linear_409_2808" x1="31.8442" y1="52.0128" x2="28.8899" y2="50.6581" gradientUnits="userSpaceOnUse">
<stop stop-color="#FFDE00"/>
<stop offset="1" stop-color="#FFE834"/>
</linearGradient>
<linearGradient id="paint11_linear_409_2808" x1="24.2953" y1="52.8091" x2="12.9238" y2="47.5949" gradientUnits="userSpaceOnUse">
<stop stop-color="#FFDE00"/>
<stop offset="1" stop-color="#FFE834"/>
</linearGradient>
<linearGradient id="paint12_linear_409_2808" x1="19.3835" y1="43.5599" x2="6.10309" y2="37.4704" gradientUnits="userSpaceOnUse">
<stop stop-color="#FFDE00"/>
<stop offset="1" stop-color="#FFE834"/>
</linearGradient>
<linearGradient id="paint13_linear_409_2808" x1="38.9278" y1="28.6934" x2="28.0289" y2="23.6959" gradientUnits="userSpaceOnUse">
<stop stop-color="#FFDE00"/>
<stop offset="1" stop-color="#FFE834"/>
</linearGradient>
<linearGradient id="paint14_linear_409_2808" x1="43.2192" y1="15.2814" x2="35.0292" y2="11.526" gradientUnits="userSpaceOnUse">
<stop stop-color="#FFDE00"/>
<stop offset="1" stop-color="#FFE834"/>
</linearGradient>
<linearGradient id="paint15_linear_409_2808" x1="32.8872" y1="28.289" x2="33.3373" y2="27.3072" gradientUnits="userSpaceOnUse">
<stop stop-color="#FFDE00"/>
<stop offset="1" stop-color="#FFE834"/>
</linearGradient>
</defs>
</svg>
