<svg width="60" height="53" viewBox="0 0 60 53" fill="none" xmlns="http://www.w3.org/2000/svg">
<path d="M54.0202 49.7399L18.5302 51.0599C13.4321 48.4663 9.18179 44.4692 6.28017 39.5399L7.05016 38.9999C7.05016 38.9999 12.4402 38.9999 12.1002 38.7499C11.7602 38.4999 5.95019 37.05 5.95019 37.05C5.67035 37.1604 5.38293 37.2506 5.09017 37.3199C4.38892 35.8788 3.80373 34.3841 3.34017 32.8499C3.54017 32.6799 3.76018 32.4799 3.97018 32.2799C4.41018 31.8599 4.78019 31.4099 4.76019 31.1299C4.43916 30.1539 3.84584 29.29 3.05016 28.64C2.82845 28.6102 2.60287 28.6307 2.39016 28.7C2.39016 28.59 2.39017 28.4899 2.34017 28.3799C-0.609828 8.93994 12.8302 3.25995 12.8302 3.25995L14.2902 3.18994L52.6202 1.18994C52.6202 1.18994 43.8002 6.04994 40.4002 19.6299C40.0724 21.0009 39.9611 22.4146 40.0702 23.8199C39.0702 24.4799 36.9602 25.8999 37.5202 26.1299C38.4676 26.2941 39.4323 26.3344 40.3902 26.2499C42.5802 37.4099 54.0202 49.7399 54.0202 49.7399Z" fill="url(#paint0_linear_415_3826)"/>
<path d="M23.67 46.1101H23.4899C23.0999 45.9701 22.7599 45.8401 22.4899 45.7201C22.3612 45.6629 22.2599 45.5578 22.2076 45.427C22.1553 45.2962 22.1561 45.1502 22.2099 45.02C22.2669 44.8938 22.371 44.7949 22.4999 44.7444C22.6289 44.694 22.7725 44.696 22.9 44.7501L23.9 45.1101C24.0312 45.1597 24.1379 45.2583 24.1976 45.3853C24.2574 45.5122 24.2654 45.6574 24.22 45.7901C24.1753 45.8958 24.0975 45.9841 23.9983 46.0418C23.8991 46.0995 23.7839 46.1235 23.67 46.1101V46.1101Z" fill="#DB2734"/>
<path d="M21.4599 44.8299H21.3999C21.3305 44.8226 21.2632 44.8013 21.2022 44.7674C21.1412 44.7335 21.0876 44.6876 21.0447 44.6325C21.0017 44.5775 20.9704 44.5144 20.9524 44.4469C20.9344 44.3794 20.9301 44.309 20.9399 44.2399C21.0199 43.5899 21.8199 43.3199 23.2599 43.0499C23.3975 43.0262 23.5389 43.0567 23.6545 43.135C23.7701 43.2133 23.8509 43.3333 23.8799 43.4699C23.8929 43.5389 23.892 43.6098 23.8773 43.6784C23.8627 43.7471 23.8345 43.8121 23.7945 43.8698C23.7545 43.9275 23.7034 43.9767 23.6443 44.0144C23.5851 44.0522 23.5191 44.0779 23.4499 44.0899C22.9334 44.1402 22.4294 44.2789 21.9599 44.4999C21.9184 44.5981 21.8488 44.6819 21.7599 44.7406C21.6709 44.7993 21.5665 44.8304 21.4599 44.8299ZM24.9299 43.8299C24.8027 43.8294 24.6798 43.7839 24.5829 43.7016C24.4859 43.6192 24.4211 43.5053 24.3999 43.3799C24.39 43.311 24.3938 43.2407 24.4111 43.1733C24.4283 43.1058 24.4587 43.0424 24.5005 42.9866C24.5423 42.9309 24.5947 42.884 24.6546 42.8485C24.7146 42.813 24.781 42.7897 24.8499 42.7799L25.3299 42.7099L26.9299 42.4599C26.9983 42.447 27.0686 42.448 27.1366 42.4627C27.2046 42.4775 27.269 42.5058 27.3259 42.5459C27.3828 42.586 27.431 42.6371 27.4678 42.6962C27.5045 42.7553 27.5291 42.8212 27.5399 42.8899C27.5513 42.9589 27.549 43.0294 27.533 43.0975C27.5171 43.1656 27.4878 43.2298 27.4469 43.2865C27.406 43.3432 27.3543 43.3912 27.2947 43.4279C27.2352 43.4645 27.169 43.489 27.0999 43.4999L25.4899 43.7499L25.0099 43.8199L24.9299 43.8299ZM28.5799 43.2299C28.4568 43.2298 28.3375 43.1868 28.2426 43.1084C28.1478 43.0299 28.0831 42.9208 28.0599 42.7999C28.0387 42.6626 28.0702 42.5224 28.1481 42.4074C28.226 42.2924 28.3446 42.2111 28.4799 42.1799C29.2399 42.0399 29.9099 41.8899 30.4799 41.7399C30.5999 41.7364 30.7175 41.7737 30.8134 41.8457C30.9094 41.9177 30.9781 42.0202 31.0083 42.1363C31.0385 42.2525 31.0284 42.3754 30.9797 42.4851C30.9309 42.5947 30.8464 42.6845 30.7399 42.7399C30.1099 42.8999 29.4199 43.0499 28.6399 43.1999L28.5799 43.2299ZM32.1699 42.3199C32.0607 42.3202 31.954 42.2868 31.8645 42.2241C31.775 42.1615 31.707 42.0727 31.6699 41.9699C31.6254 41.8373 31.635 41.6924 31.6968 41.5669C31.7587 41.4414 31.8676 41.3454 31.9999 41.2999C32.6377 41.0851 33.2537 40.8105 33.8399 40.4799C33.8997 40.4352 33.9684 40.4037 34.0413 40.3873C34.1142 40.371 34.1897 40.3703 34.2629 40.3852C34.3361 40.4001 34.4053 40.4303 34.466 40.4738C34.5267 40.5174 34.5775 40.5732 34.6151 40.6378C34.6527 40.7023 34.6762 40.7741 34.6841 40.8484C34.6921 40.9226 34.6842 40.9978 34.661 41.0688C34.6379 41.1398 34.6 41.2051 34.5498 41.2605C34.4996 41.3158 34.4383 41.3599 34.3699 41.3899C33.7341 41.7542 33.0642 42.0556 32.3699 42.2899L32.1699 42.3199ZM35.3399 40.4899C35.2102 40.4868 35.086 40.4371 34.9899 40.3499C34.9397 40.3023 34.8997 40.2449 34.8723 40.1813C34.845 40.1177 34.8309 40.0492 34.8309 39.9799C34.8309 39.9107 34.845 39.8422 34.8723 39.7786C34.8997 39.715 34.9397 39.6576 34.9899 39.6099C35.142 39.4397 35.273 39.2516 35.3799 39.0499C35.5556 38.7448 35.6551 38.4017 35.6699 38.0499C35.6686 37.9803 35.681 37.9111 35.7064 37.8463C35.7318 37.7815 35.7698 37.7223 35.8181 37.6722C35.8663 37.622 35.924 37.5819 35.9878 37.5541C36.0516 37.5262 36.1203 37.5112 36.1899 37.5099C36.2581 37.5058 36.3263 37.5157 36.3905 37.539C36.4546 37.5623 36.5134 37.5985 36.563 37.6453C36.6127 37.6922 36.6522 37.7487 36.6792 37.8114C36.7062 37.8741 36.72 37.9417 36.7199 38.0099C36.7109 38.5287 36.5735 39.0372 36.3199 39.4899C36.1747 39.7723 35.9932 40.0346 35.7799 40.2699C35.7298 40.3394 35.6636 40.3957 35.587 40.4341C35.5103 40.4724 35.4256 40.4915 35.3399 40.4899V40.4899ZM35.3399 37.2899C35.2333 37.2896 35.1291 37.2584 35.0399 37.1999C34.4926 36.8591 33.8903 36.6155 33.2599 36.4799C33.1934 36.4625 33.131 36.4321 33.0763 36.3904C33.0216 36.3487 32.9758 36.2966 32.9414 36.2371C32.907 36.1776 32.8847 36.1119 32.8759 36.0437C32.867 35.9755 32.8718 35.9062 32.8899 35.8399C32.9252 35.7052 33.0122 35.5898 33.132 35.5187C33.2518 35.4476 33.3947 35.4264 33.5299 35.4599C34.2799 35.6304 34.9963 35.9245 35.6499 36.3299C35.7634 36.4123 35.8405 36.5355 35.8647 36.6736C35.889 36.8117 35.8586 36.9538 35.7799 37.0699C35.7338 37.1341 35.674 37.1871 35.6048 37.2252C35.5356 37.2633 35.4588 37.2854 35.3799 37.2899H35.3399ZM31.8499 36.1699H31.7499C31.1899 36.0699 30.5499 35.9699 29.6799 35.8499C29.611 35.8401 29.5446 35.8167 29.4847 35.7813C29.4248 35.7458 29.3724 35.6988 29.3307 35.6431C29.2889 35.5874 29.2585 35.524 29.2412 35.4565C29.2239 35.3891 29.2201 35.3189 29.2299 35.2499C29.2398 35.181 29.2631 35.1146 29.2986 35.0547C29.3341 34.9948 29.381 34.9424 29.4367 34.9006C29.4924 34.8589 29.5558 34.8285 29.6233 34.8112C29.6908 34.7939 29.761 34.7901 29.8299 34.7999C30.7199 34.9299 31.3699 35.0299 31.9399 35.1299C32.0682 35.155 32.1826 35.2266 32.2613 35.331C32.34 35.4354 32.3773 35.5651 32.3662 35.6953C32.355 35.8255 32.2961 35.947 32.2008 36.0365C32.1055 36.1259 31.9806 36.177 31.8499 36.1799V36.1699ZM28.1799 35.6299H28.1099L26.0099 35.3299C25.9277 35.3416 25.844 35.3338 25.7654 35.3072C25.6867 35.2806 25.6155 35.2359 25.5573 35.1767C25.4991 35.1175 25.4557 35.0454 25.4305 34.9664C25.4052 34.8873 25.3989 34.8034 25.412 34.7214C25.4251 34.6395 25.4573 34.5618 25.506 34.4945C25.5546 34.4273 25.6183 34.3724 25.6921 34.3343C25.7658 34.2962 25.8475 34.276 25.9305 34.2752C26.0135 34.2744 26.0955 34.2932 26.1699 34.3299L28.2499 34.6299C28.3772 34.654 28.4913 34.7239 28.5706 34.8263C28.6498 34.9287 28.6889 35.0567 28.6802 35.1859C28.6716 35.3152 28.616 35.4368 28.5238 35.5278C28.4316 35.6188 28.3093 35.6729 28.1799 35.6799V35.6299ZM24.5199 35.0699H24.4299C23.6799 34.9399 22.9899 34.8099 22.3299 34.6599C22.249 34.6621 22.1687 34.6458 22.0951 34.6122C22.0215 34.5786 21.9565 34.5285 21.9053 34.4659C21.854 34.4033 21.8178 34.3297 21.7993 34.2509C21.7809 34.1722 21.7807 34.0902 21.7988 34.0113C21.817 33.9325 21.8529 33.8588 21.904 33.796C21.955 33.7331 22.0197 33.6829 22.0932 33.6489C22.1666 33.615 22.2469 33.5983 22.3278 33.6003C22.4087 33.6022 22.4881 33.6226 22.5599 33.6599C23.1999 33.7999 23.8799 33.9299 24.6099 34.0599C24.7382 34.085 24.8526 34.1566 24.9313 34.261C25.01 34.3653 25.0473 34.4951 25.0362 34.6253C25.025 34.7555 24.9661 34.877 24.8708 34.9665C24.7756 35.0559 24.6506 35.107 24.5199 35.1099V35.0699ZM20.8999 34.2899H20.7699C20.0399 34.0999 19.3499 33.8799 18.7099 33.6599C18.6422 33.6386 18.5795 33.6038 18.5254 33.5578C18.4714 33.5117 18.4272 33.4553 18.3954 33.3918C18.3636 33.3283 18.3449 33.2591 18.3403 33.1883C18.3358 33.1174 18.3456 33.0464 18.369 32.9793C18.3925 32.9123 18.4291 32.8507 18.4769 32.7982C18.5246 32.7456 18.5824 32.7032 18.6468 32.6734C18.7113 32.6436 18.781 32.627 18.852 32.6247C18.9229 32.6224 18.9937 32.6344 19.0599 32.6599C19.6799 32.8799 20.3399 33.0799 21.0599 33.2699C21.1612 33.3186 21.2444 33.3983 21.2974 33.4973C21.3505 33.5964 21.3707 33.7098 21.3551 33.821C21.3395 33.9323 21.289 34.0358 21.2108 34.1165C21.1325 34.1972 21.0307 34.2509 20.9199 34.2699L20.8999 34.2899ZM32.3699 33.9299C31.896 33.9285 31.4235 33.8782 30.9599 33.7799C30.8787 33.7836 30.7977 33.7685 30.7233 33.7359C30.6488 33.7033 30.5829 33.654 30.5305 33.5918C30.4782 33.5296 30.4408 33.4562 30.4214 33.3772C30.4019 33.2983 30.4009 33.216 30.4184 33.1366C30.4358 33.0572 30.4713 32.9829 30.5221 32.9194C30.5729 32.8559 30.6376 32.805 30.7112 32.7705C30.7848 32.736 30.8654 32.7189 30.9467 32.7206C31.0279 32.7222 31.1077 32.7425 31.1799 32.7799C31.8113 32.9123 32.4606 32.936 33.0999 32.8499C33.1683 32.8401 33.2379 32.844 33.3048 32.8614C33.3716 32.8787 33.4344 32.9093 33.4893 32.9511C33.5442 32.993 33.5903 33.0455 33.6247 33.1053C33.6591 33.1652 33.6813 33.2314 33.6899 33.2999C33.6998 33.3689 33.696 33.4391 33.6787 33.5066C33.6615 33.574 33.6311 33.6375 33.5893 33.6932C33.5475 33.7489 33.4951 33.7959 33.4352 33.8313C33.3752 33.8668 33.3089 33.8901 33.2399 33.8999C32.9642 33.9286 32.6869 33.9386 32.4099 33.9299H32.3699ZM34.6599 33.3699C34.535 33.388 34.4078 33.3608 34.3011 33.2935C34.1944 33.2261 34.1152 33.1228 34.0779 33.0023C34.0405 32.8818 34.0474 32.7519 34.0972 32.6359C34.1471 32.52 34.2367 32.4257 34.3499 32.3699C34.5259 32.2422 34.6654 32.0708 34.7549 31.8726C34.8443 31.6744 34.8805 31.4563 34.8599 31.2399C34.8647 31.1533 34.8647 31.0665 34.8599 30.9799C34.8457 30.9077 34.8467 30.8333 34.8629 30.7615C34.879 30.6897 34.9099 30.622 34.9536 30.5628C34.9974 30.5036 35.053 30.4542 35.1169 30.4177C35.1807 30.3811 35.2515 30.3583 35.3247 30.3506C35.3979 30.343 35.4719 30.3506 35.542 30.3731C35.6121 30.3956 35.6767 30.4325 35.7318 30.4813C35.7868 30.5302 35.8311 30.59 35.8618 30.6569C35.8924 30.7238 35.9088 30.7963 35.9099 30.8699C35.9099 30.9999 35.9099 31.1199 35.9099 31.2399C35.9299 31.6259 35.8535 32.0108 35.6877 32.36C35.5218 32.7091 35.2717 33.0115 34.9599 33.2399C34.8926 33.3217 34.8019 33.3811 34.6999 33.4099L34.6599 33.3699ZM29.5599 33.3699C29.4873 33.3675 29.4158 33.3505 29.3499 33.3199C28.6724 33.0302 28.023 32.6787 27.4099 32.2699C27.298 32.1897 27.2217 32.0691 27.1972 31.9336C27.1726 31.7981 27.2018 31.6584 27.2785 31.544C27.3552 31.4296 27.4733 31.3496 27.608 31.3208C27.7426 31.2921 27.8832 31.3169 27.9999 31.3899C28.5532 31.7788 29.1426 32.1137 29.7599 32.3899C29.8897 32.4431 29.9932 32.5456 30.0475 32.675C30.1019 32.8043 30.1027 32.95 30.0499 33.0799C30.0005 33.1539 29.9335 33.2145 29.855 33.2564C29.7765 33.2983 29.6889 33.3201 29.5999 33.3199L29.5599 33.3699ZM17.4099 33.1299C17.3407 33.1451 17.2691 33.1451 17.1999 33.1299L17.0799 33.0799C16.4113 32.7859 15.8041 32.3686 15.2899 31.8499C15.1905 31.7505 15.1346 31.6156 15.1346 31.4749C15.1346 31.3343 15.1905 31.1994 15.2899 31.0999C15.3894 31.0005 15.5243 30.9446 15.6649 30.9446C15.8056 30.9446 15.9405 31.0005 16.0399 31.0999C16.4675 31.5215 16.9692 31.8605 17.5199 32.0999H17.6199C17.6836 32.1281 17.7412 32.1686 17.7893 32.219C17.8374 32.2695 17.875 32.3289 17.9001 32.3939C17.9252 32.4589 17.9372 32.5283 17.9354 32.5979C17.9337 32.6676 17.9182 32.7362 17.8899 32.7999C17.8477 32.8812 17.7848 32.9499 17.7076 32.9991C17.6303 33.0482 17.5414 33.0761 17.4499 33.0799L17.4099 33.1299ZM14.7499 30.6799C14.6522 30.6806 14.5564 30.6538 14.4732 30.6025C14.3901 30.5512 14.3231 30.4775 14.2799 30.3899C13.9352 29.6962 13.728 28.9424 13.6699 28.1699C13.6728 28.0393 13.7239 27.9143 13.8134 27.819C13.9028 27.7237 14.0243 27.6648 14.1545 27.6537C14.2847 27.6425 14.4145 27.6798 14.5188 27.7585C14.6232 27.8372 14.6948 27.9517 14.7199 28.0799C14.7683 28.7162 14.938 29.3374 15.2199 29.9099C15.2822 30.0359 15.292 30.1815 15.2469 30.3146C15.2019 30.4478 15.1059 30.5576 14.9799 30.6199C14.918 30.6364 14.8533 30.6399 14.7899 30.6299L14.7499 30.6799ZM34.9699 30.0099C34.8644 30.0111 34.761 29.9802 34.6735 29.9213C34.586 29.8623 34.5185 29.7781 34.4799 29.6799C34.225 29.0534 33.9207 28.4482 33.5699 27.8699C33.534 27.8096 33.5104 27.7428 33.5005 27.6733C33.4907 27.6039 33.4947 27.5331 33.5124 27.4652C33.53 27.3973 33.561 27.3336 33.6035 27.2777C33.646 27.2219 33.6992 27.1751 33.7599 27.1399C33.8808 27.0706 34.0241 27.0516 34.1589 27.0872C34.2937 27.1227 34.409 27.21 34.4799 27.3299C34.8711 27.966 35.2058 28.6353 35.4799 29.3299C35.5058 29.3949 35.5186 29.4643 35.5175 29.5343C35.5164 29.6042 35.5015 29.6732 35.4736 29.7374C35.4457 29.8015 35.4054 29.8595 35.355 29.908C35.3046 29.9565 35.2451 29.9945 35.1799 30.0199C35.1205 30.0089 35.0631 29.9886 35.0099 29.9599L34.9699 30.0099ZM14.2699 27.0699H14.1799C14.1116 27.0603 14.0459 27.0369 13.9868 27.0012C13.9278 26.9654 13.8767 26.9181 13.8365 26.862C13.7963 26.8059 13.7678 26.7422 13.753 26.6748C13.7381 26.6074 13.7371 26.5377 13.7499 26.4699C13.8701 25.7225 14.1027 24.9977 14.4399 24.3199C14.5022 24.1939 14.6121 24.0979 14.7452 24.0529C14.8784 24.0079 15.0239 24.0176 15.1499 24.0799C15.2119 24.1098 15.2674 24.1517 15.3131 24.2031C15.3588 24.2546 15.3938 24.3146 15.4162 24.3798C15.4385 24.4449 15.4477 24.5138 15.4432 24.5825C15.4387 24.6512 15.4205 24.7183 15.3899 24.7799C15.0991 25.3669 14.8969 25.9937 14.7899 26.6399C14.759 26.7451 14.6963 26.8382 14.6103 26.9062C14.5244 26.9743 14.4194 27.014 14.3099 27.0199L14.2699 27.0699ZM33.1699 26.7899C33.0834 26.7904 32.998 26.7697 32.9213 26.7296C32.8446 26.6895 32.7789 26.6313 32.7299 26.5599C32.3599 26.0299 31.9499 25.4699 31.4899 24.8999C31.4039 24.7879 31.3651 24.6468 31.382 24.5066C31.3988 24.3664 31.4698 24.2383 31.5799 24.1499C31.6902 24.0645 31.8299 24.026 31.9684 24.0428C32.107 24.0597 32.2333 24.1305 32.3199 24.2399C32.7899 24.8299 33.2199 25.4099 33.5999 25.9599C33.6401 26.017 33.6687 26.0814 33.6839 26.1496C33.6991 26.2177 33.7008 26.2882 33.6887 26.3569C33.6766 26.4257 33.6511 26.4914 33.6135 26.5502C33.576 26.6091 33.5272 26.66 33.4699 26.6999C33.3875 26.733 33.2985 26.7467 33.2099 26.7399L33.1699 26.7899ZM30.8999 23.8699C30.8241 23.8709 30.7491 23.8553 30.68 23.8242C30.6109 23.7931 30.5494 23.7472 30.4999 23.6899C30.1699 23.2999 29.8299 22.9199 29.4999 22.5399C29.4028 22.438 29.2917 22.3504 29.1699 22.2799C29.1017 22.2482 29.041 22.2023 28.9918 22.1453C28.9427 22.0883 28.9063 22.0215 28.885 21.9493C28.8637 21.8772 28.858 21.8013 28.8683 21.7267C28.8786 21.6522 28.9046 21.5807 28.9447 21.517C28.9848 21.4533 29.038 21.3989 29.1007 21.3574C29.1635 21.3158 29.2343 21.2881 29.3086 21.2761C29.3829 21.2641 29.4588 21.268 29.5315 21.2876C29.6041 21.3073 29.6718 21.3421 29.7299 21.3899C29.9315 21.5082 30.1165 21.6528 30.2799 21.8199L31.2799 22.9999C31.3252 23.0522 31.3596 23.1129 31.3811 23.1786C31.4026 23.2443 31.4108 23.3136 31.4052 23.3825C31.3997 23.4514 31.3804 23.5185 31.3486 23.5799C31.3167 23.6412 31.273 23.6956 31.2199 23.7399C31.1366 23.7938 31.0391 23.8216 30.9399 23.8199L30.8999 23.8699ZM15.7599 23.7299C15.6442 23.7285 15.532 23.6899 15.4399 23.6199C15.3305 23.5333 15.2597 23.407 15.2428 23.2684C15.226 23.1299 15.2645 22.9903 15.3499 22.8799C15.8208 22.2856 16.3728 21.7605 16.9899 21.3199C17.1041 21.2555 17.2381 21.2356 17.3661 21.2643C17.494 21.2929 17.6068 21.3679 17.6827 21.4749C17.7586 21.5818 17.7921 21.7131 17.7768 21.8433C17.7615 21.9735 17.6985 22.0934 17.5999 22.1799C17.0679 22.5639 16.5902 23.018 16.1799 23.5299C16.0772 23.6268 15.9411 23.6805 15.7999 23.6799L15.7599 23.7299ZM27.9899 21.7299C27.9303 21.7395 27.8695 21.7395 27.8099 21.7299C27.1558 21.5035 26.4878 21.3198 25.8099 21.1799C25.7063 21.1262 25.6233 21.0398 25.5739 20.9342C25.5244 20.8285 25.5111 20.7094 25.5362 20.5955C25.5613 20.4815 25.6232 20.379 25.7125 20.3039C25.8018 20.2288 25.9133 20.1852 26.0299 20.1799C26.7452 20.331 27.45 20.5281 28.1399 20.7699C28.2704 20.8174 28.377 20.9142 28.4368 21.0395C28.4967 21.1648 28.505 21.3086 28.4599 21.4399C28.4097 21.5062 28.3447 21.5597 28.27 21.5962C28.1953 21.6327 28.113 21.6511 28.0299 21.6499L27.9899 21.7299ZM18.6699 21.5299C18.5659 21.5306 18.4639 21.5006 18.3767 21.4437C18.2896 21.3868 18.2211 21.3055 18.1799 21.2099C18.1346 21.1369 18.1077 21.054 18.1015 20.9683C18.0954 20.8826 18.1102 20.7966 18.1446 20.7179C18.1791 20.6392 18.2321 20.57 18.2993 20.5164C18.3664 20.4627 18.4455 20.4262 18.5299 20.4099C19.2173 20.1149 19.94 19.9099 20.6799 19.7999C20.754 19.763 20.8356 19.7439 20.9184 19.7441C21.0012 19.7444 21.0827 19.7641 21.1565 19.8015C21.2303 19.839 21.2943 19.8932 21.3434 19.9599C21.3925 20.0265 21.4252 20.1037 21.4391 20.1853C21.453 20.2669 21.4475 20.3506 21.4232 20.4297C21.399 20.5088 21.3565 20.5812 21.2992 20.6409C21.2419 20.7006 21.1715 20.7461 21.0934 20.7737C21.0154 20.8014 20.932 20.8103 20.8499 20.7999C20.1956 20.8958 19.5568 21.0774 18.9499 21.3399C18.8768 21.3824 18.7944 21.4064 18.7099 21.4099L18.6699 21.5299ZM24.3899 20.9099H24.3299C23.7556 20.8431 23.178 20.8097 22.5999 20.8099H22.2899C22.2149 20.8203 22.1385 20.8145 22.0659 20.7928C21.9933 20.7712 21.9262 20.7343 21.8691 20.6845C21.812 20.6348 21.7663 20.5734 21.7349 20.5044C21.7035 20.4355 21.6873 20.3607 21.6873 20.2849C21.6873 20.2092 21.7035 20.1343 21.7349 20.0654C21.7663 19.9965 21.812 19.935 21.8691 19.8853C21.9262 19.8355 21.9933 19.7986 22.0659 19.777C22.1385 19.7554 22.2149 19.7495 22.2899 19.7599H22.6599C23.2682 19.7626 23.8758 19.7993 24.4799 19.8699C24.6069 19.8933 24.7209 19.9622 24.8007 20.0638C24.8804 20.1653 24.9204 20.2925 24.913 20.4214C24.9056 20.5503 24.8515 20.6721 24.7607 20.7639C24.6699 20.8557 24.5487 20.9111 24.4199 20.9199L24.3899 20.9099Z" fill="#DB2734"/>
<path d="M26.4401 31.3197C26.3153 31.3162 26.1954 31.2704 26.1001 31.1897C25.8133 30.9513 25.5427 30.6941 25.2901 30.4197C25.1959 30.3176 25.1462 30.1823 25.1518 30.0435C25.1574 29.9047 25.218 29.7738 25.3201 29.6797C25.4222 29.5855 25.5575 29.5358 25.6963 29.5414C25.835 29.5471 25.9659 29.6076 26.0601 29.7097C26.0601 29.7097 26.3301 29.9897 26.7901 30.3897C26.8717 30.4607 26.9297 30.5549 26.9562 30.6598C26.9827 30.7647 26.9765 30.8751 26.9384 30.9764C26.9003 31.0776 26.8321 31.1648 26.743 31.2262C26.654 31.2875 26.5482 31.3202 26.4401 31.3197V31.3197Z" fill="#DB2734"/>
<path d="M20.7903 31.41C20.6862 31.4107 20.5842 31.3807 20.4971 31.3238C20.41 31.2669 20.3415 31.1856 20.3003 31.09C20.2468 30.9613 20.2463 30.8168 20.2987 30.6876C20.3511 30.5585 20.4522 30.4551 20.5802 30.4L26.4103 27.93C26.5429 27.8757 26.6917 27.8762 26.8239 27.9315C26.9561 27.9869 27.0609 28.0924 27.1153 28.2251C27.1696 28.3577 27.1691 28.5064 27.1138 28.6387C27.0584 28.7709 26.9529 28.8757 26.8203 28.93L20.9903 31.41C20.9244 31.4251 20.8561 31.4251 20.7903 31.41V31.41Z" fill="#DB2734"/>
<path d="M24.8404 33.0399C24.7143 33.039 24.5928 32.9932 24.4975 32.9107C24.4022 32.8282 24.3394 32.7145 24.3204 32.5899L23.4904 27.3199C23.4534 27.2459 23.4343 27.1642 23.4346 27.0814C23.4349 26.9987 23.4545 26.9171 23.492 26.8433C23.5294 26.7695 23.5837 26.7055 23.6503 26.6564C23.7169 26.6074 23.7942 26.5746 23.8758 26.5607C23.9574 26.5469 24.0411 26.5523 24.1202 26.5766C24.1993 26.6009 24.2716 26.6433 24.3314 26.7006C24.3911 26.7579 24.4366 26.8283 24.4642 26.9064C24.4918 26.9844 24.5008 27.0678 24.4904 27.1499L25.3204 32.4299C25.3317 32.4983 25.3293 32.5683 25.3132 32.6357C25.2971 32.7031 25.2677 32.7667 25.2267 32.8226C25.1857 32.8785 25.134 32.9256 25.0745 32.9612C25.015 32.9968 24.949 33.0202 24.8804 33.0299L24.8404 33.0399Z" fill="#DB2734"/>
<g style="mix-blend-mode:multiply" opacity="0.5">
<path d="M19.8702 47.83C19.7602 47.72 8.50015 36.24 8.62015 25.52C8.74015 14.8 17.3202 3.88002 17.4102 3.77002L17.8202 4.09003C17.7302 4.20003 9.27015 15 9.15015 25.52C9.03015 36.04 20.1502 47.35 20.2502 47.46L19.8702 47.83Z" fill="#DC6A94"/>
<path d="M31.7002 47.59C31.5902 47.47 20.4501 35.59 20.9901 24.73C21.5301 13.87 27.6801 3.89004 27.7401 3.79004L28.1902 4.07004C28.1202 4.17004 22.0501 14.07 21.5201 24.76C20.9901 35.45 31.9701 47.11 32.0801 47.23L31.7002 47.59Z" fill="#DC6A94"/>
<path d="M44.2901 45.09C43.8201 44.69 32.8001 35.15 32.2901 27.52C31.7801 19.89 36.5301 5.40996 36.5901 5.20996L37.0901 5.37997C37.0401 5.51997 32.3001 20.01 32.8101 27.48C33.3201 34.95 44.5201 44.59 44.6401 44.69L44.2901 45.09Z" fill="#DC6A94"/>
<path d="M4.66016 21.4101V20.8801C4.83016 20.8801 22.2002 20.0201 37.3802 19.6001V20.1201C22.2002 20.5801 4.84016 21.4101 4.66016 21.4101Z" fill="#DC6A94"/>
<path d="M7.11011 32.96V32.43C7.31011 32.43 26.9701 31.23 39.5101 30.77V31.3C26.9701 31.76 7.31011 32.95 7.11011 32.96Z" fill="#DC6A94"/>
<path d="M11.8701 42.9L11.7802 42.38C11.9602 42.38 30.2001 39.19 43.0201 40.05V40.58C30.2201 39.72 12.0501 42.87 11.8701 42.9Z" fill="#DC6A94"/>
</g>
<g style="mix-blend-mode:multiply" opacity="0.2">
<path d="M40.2606 20.1997C34.8599 24.5167 28.7486 27.86 22.2006 30.0797C11.1306 33.8797 4.29058 26.5697 4.20058 19.3197C4.11058 12.0697 8.51055 7.31972 12.6405 6.31972C16.7705 5.31972 41.1206 17.0597 41.1206 17.0597L40.2606 20.1997Z" fill="#DC6A94"/>
</g>
<g style="mix-blend-mode:multiply" opacity="0.5">
<path d="M10.5307 7.13967C6.19066 9.41967 2.44066 17.2097 5.03066 22.0397C7.62066 26.8697 30.5607 24.0397 35.0307 22.4697C37.4923 21.711 39.5865 20.0691 40.9107 17.8597C40.9107 17.8597 19.5307 2.31967 10.5307 7.13967Z" fill="#C60055"/>
</g>
<path d="M59.08 7.14007C57.24 12.2101 47.99 18.3301 47.99 18.3301C37.64 16.6801 13.99 19.8901 13.99 19.8901L14.27 19.3601C20.45 7.52007 11.79 2.51006 11.79 2.51006H13.09C32.27 1.95006 43.69 -0.879932 53.76 1.17007C54.4176 1.29986 55.0657 1.47358 55.7 1.69006C56.0631 1.8081 56.4173 1.95179 56.76 2.12005V2.12005C59.4 3.32005 59.82 5.14007 59.08 7.14007Z" fill="url(#paint1_linear_415_3826)"/>
<path d="M3.95984 32.27C4.48542 33.9156 5.15466 35.5117 5.95984 37.04C5.68 37.1505 5.39261 37.2407 5.09985 37.31C4.81432 37.3853 4.52349 37.4388 4.22986 37.47C3.60148 36.1717 3.05375 34.8358 2.58984 33.47C2.58984 33.47 2.93985 33.22 3.34985 32.87C3.52985 32.67 3.74984 32.47 3.95984 32.27Z" fill="url(#paint2_linear_415_3826)"/>
<path d="M14.5301 19.3299C14.3673 19.5292 14.1902 19.7164 14.0001 19.8899L13.3201 19.2999L12.1401 18.2999C16.2601 18.4899 17.5501 5.12992 11.6301 6.38992C6.18013 7.54992 0.630134 16.2399 3.01013 28.6499C2.78842 28.6201 2.56284 28.6406 2.35013 28.7099C2.01202 28.7853 1.67821 28.8787 1.35013 28.9899C0.633034 25.3454 0.742391 21.5865 1.67014 17.9899C4.46014 7.6599 9.61013 1.4299 13.0701 2.4899C13.5036 2.63371 13.8974 2.87687 14.2201 3.19992C15.2335 4.34879 15.8842 5.77189 16.0901 7.28992C17.6301 14.4699 15.5901 18.0499 14.5301 19.3299Z" fill="url(#paint3_linear_415_3826)"/>
<path d="M18.5303 51.0598L17.6103 52.3098C12.5599 49.3634 8.38916 45.1202 5.53027 40.0197L6.24026 39.5298L7.01028 38.9897C9.98347 43.7566 13.9046 47.8615 18.5303 51.0498V51.0598Z" fill="url(#paint4_linear_415_3826)"/>
<path d="M17.6104 52.3098C17.6104 52.3098 40.9304 50.3097 53.3404 50.9897L54.0204 49.7397L18.5304 51.0598L17.6104 52.3098Z" fill="#B52E4B"/>
<path d="M4.20996 37.47C4.20996 37.47 9.68996 39.21 10.68 39.04C11.1567 38.9751 11.628 38.8748 12.09 38.74C12.09 38.74 6.79997 37.09 5.93997 37.04C5.33712 37.0422 4.74368 37.1897 4.20996 37.47V37.47Z" fill="#B52E4B"/>
<path d="M40.06 23.8101C40.06 23.8101 39.24 24.9301 39.11 25.2201C38.98 25.5101 37.51 26.1201 37.51 26.1201C37.51 26.1201 36.73 25.9101 40.06 23.8101Z" fill="#B52E4B"/>
<g style="mix-blend-mode:multiply" opacity="0.2">
<path d="M14.0303 19.89C14.0303 19.89 30.1203 13.5499 43.0303 11.0599C55.9403 8.56993 54.0303 12.0599 53.5303 13.2699C53.0303 14.4799 49.1003 17.14 46.6403 17.55C44.1803 17.96 35.8403 16.55 14.0303 19.89Z" fill="#DC6A94"/>
</g>
<g style="mix-blend-mode:screen" opacity="0.3">
<path d="M11.6705 44.5298C11.6705 44.5298 8.28045 40.5298 9.23045 40.0198C10.1805 39.5098 28.7304 38.7598 37.9704 40.3198C47.2104 41.8798 52.3604 48.5198 51.9704 49.1698C51.5804 49.8198 23.1204 50.1698 18.9704 49.7398C14.8204 49.3098 11.6705 44.5298 11.6705 44.5298Z" fill="#FFB64A"/>
</g>
<path d="M1.41016 28.97C2.30091 29.5937 3.11931 30.3148 3.85016 31.12C4.35016 31.86 3.96014 32.27 3.96014 32.27C3.96014 32.27 5.01015 31.27 5.03015 31C4.48258 30.0135 3.79175 29.1138 2.98016 28.33C2.66016 28.15 1.41016 28.97 1.41016 28.97Z" fill="#B52E4B"/>
<g style="mix-blend-mode:screen" opacity="0.3">
<path d="M16.2799 2.40985C14.2799 3.22985 31.2299 7.40983 38.7499 7.51983C46.2699 7.62983 57.0099 4.15983 57.5399 3.51983C58.0699 2.87983 48.3899 0.659847 44.4099 0.439847C40.4299 0.219847 16.2799 2.40985 16.2799 2.40985Z" fill="#FFB64A"/>
</g>
<g style="mix-blend-mode:multiply" opacity="0.2">
<path d="M59.0805 7.13965C57.2405 12.2096 47.9905 18.3297 47.9905 18.3297C37.6405 16.6797 13.9905 19.8896 13.9905 19.8896L13.3105 19.2997C13.6352 19.3942 13.9769 19.4147 14.3105 19.3596H14.5605C16.4705 18.9896 32.0205 16.5896 38.7505 16.4096C45.4805 16.2296 46.5905 17.5396 48.8105 16.8396C51.0305 16.1396 57.8305 9.48965 59.0805 7.13965Z" fill="#C60055"/>
</g>
<g style="mix-blend-mode:multiply" opacity="0.2">
<path d="M15.8203 19.6601C15.8203 19.6601 30.6903 18.1601 33.9603 17.5501C37.2303 16.9401 43.4503 12.2401 43.5603 11.3401C43.6703 10.4401 27.9703 14.6901 23.2203 16.8301C20.8292 17.9603 18.3554 18.9063 15.8203 19.6601V19.6601Z" fill="#DC6A94"/>
</g>
<g style="mix-blend-mode:screen" opacity="0.3">
<path d="M6.66068 36.9099C6.11571 36.5114 5.68043 35.9815 5.39542 35.3696C5.11041 34.7576 4.98494 34.0834 5.03068 33.4099C5.30068 32.4599 9.45068 33.0599 12.7207 35.2599C15.9907 37.4599 13.3207 38.8499 12.0407 38.4699C10.7607 38.0899 6.66068 36.9099 6.66068 36.9099Z" fill="#FFB64A"/>
</g>
<g style="mix-blend-mode:multiply" opacity="0.2">
<path d="M25.2201 9.25977C25.2427 8.98004 25.3489 8.71355 25.5248 8.49491C25.7008 8.27627 25.9384 8.11556 26.2068 8.03364C26.4753 7.95171 26.7621 7.95235 27.0301 8.03547C27.2982 8.11859 27.5351 8.28034 27.7101 8.49976C27.8203 9.02719 27.7377 9.57669 27.4771 10.0483C27.2165 10.5199 26.7953 10.8824 26.2901 11.0698C25.2501 11.3198 25.1801 10.0598 25.2201 9.25977Z" fill="#C60055"/>
</g>
<g style="mix-blend-mode:multiply" opacity="0.3">
<path d="M25.3208 8.75979C25.5708 10.9098 25.4808 8.75979 26.5008 8.25979C27.5208 7.75979 27.7908 9.09978 27.7808 9.15978C27.7708 9.21978 28.0908 7.88978 26.6308 7.96978C25.1708 8.04978 25.3208 8.75979 25.3208 8.75979Z" fill="#C60055"/>
</g>
<g style="mix-blend-mode:multiply" opacity="0.2">
<path d="M23.6401 14.4101C24.6401 13.1701 23.3801 9.01009 20.4801 9.23009C17.5801 9.45009 19.0201 13.6301 20.4801 14.6201C20.6996 14.8175 20.9564 14.9689 21.2354 15.0654C21.5144 15.1619 21.8099 15.2015 22.1044 15.182C22.399 15.1624 22.6866 15.084 22.9504 14.9514C23.2141 14.8189 23.4487 14.6348 23.6401 14.4101V14.4101Z" fill="#C60055"/>
</g>
<g style="mix-blend-mode:multiply" opacity="0.3">
<path d="M18.8804 11.6699C19.0204 12.3499 19.0004 10.0199 20.3604 9.44995C21.7204 8.87995 22.3004 10.6799 23.3604 11.6699C24.4204 12.6599 23.1304 8.80993 20.5004 9.20993C20.2142 9.22515 19.9356 9.30739 19.687 9.44998C19.4385 9.59257 19.2268 9.79154 19.0692 10.0309C18.9116 10.2702 18.8124 10.5432 18.7796 10.8279C18.7468 11.1126 18.7813 11.401 18.8804 11.6699V11.6699Z" fill="#C60055"/>
</g>
<g style="mix-blend-mode:multiply" opacity="0.4">
<path d="M56.7999 2.08004C53.714 1.28065 50.554 0.801425 47.3699 0.650018C41.7199 0.340018 38.2199 1.98004 30.9299 2.05004C23.6399 2.12004 13.1299 2.47003 13.1299 2.47003C32.3099 1.91003 43.7299 -0.919971 53.7999 1.13003C54.4574 1.25983 55.1055 1.43354 55.7399 1.65002L56.7999 2.08004Z" fill="#C60055"/>
</g>
<g style="mix-blend-mode:multiply" opacity="0.5">
<path d="M14.0299 19.8898L12.1699 18.2798C12.7185 18.2104 13.2382 17.9945 13.6746 17.6549C14.1109 17.3153 14.4478 16.8645 14.6499 16.3498C15.3238 13.7325 15.7161 11.0506 15.8199 8.34984C15.9199 6.34984 17.4299 11.1698 16.3999 15.0598C15.3699 18.9498 14.0299 19.8898 14.0299 19.8898Z" fill="#C60055"/>
</g>
<g style="mix-blend-mode:multiply" opacity="0.5">
<path d="M11.8304 2.50969C10.3604 2.79969 7.20036 6.70968 7.49036 7.30968C7.78036 7.90968 10.0704 5.43968 12.6504 6.30968C15.2304 7.17968 15.5504 6.17968 15.3704 5.30968C15.1904 4.43968 14.1204 2.05969 11.8304 2.50969Z" fill="#C60055"/>
</g>
<defs>
<linearGradient id="paint0_linear_415_3826" x1="27.9602" y1="51.0599" x2="27.9602" y2="1.17994" gradientUnits="userSpaceOnUse">
<stop stop-color="#FFC7AB"/>
<stop offset="0.43" stop-color="#FFBA82"/>
<stop offset="1" stop-color="#EF7C79"/>
</linearGradient>
<linearGradient id="paint1_linear_415_3826" x1="35.62" y1="19.8901" x2="35.62" y2="0.390067" gradientUnits="userSpaceOnUse">
<stop stop-color="#FFA274"/>
<stop offset="1" stop-color="#FFC488"/>
</linearGradient>
<linearGradient id="paint2_linear_415_3826" x1="4.98984" y1="51.4401" x2="2.61983" y2="-0.870057" gradientUnits="userSpaceOnUse">
<stop stop-color="#EB7463"/>
<stop offset="1" stop-color="#E45445"/>
</linearGradient>
<linearGradient id="paint3_linear_415_3826" x1="10.3101" y1="51.1999" x2="7.94012" y2="-1.1101" gradientUnits="userSpaceOnUse">
<stop stop-color="#EB7463"/>
<stop offset="1" stop-color="#D13145"/>
</linearGradient>
<linearGradient id="paint4_linear_415_3826" x1="12.3003" y1="51.1098" x2="9.92027" y2="-1.20028" gradientUnits="userSpaceOnUse">
<stop stop-color="#EB7463"/>
<stop offset="1" stop-color="#E45445"/>
</linearGradient>
</defs>
</svg>
