<svg width="36" height="56" viewBox="0 0 36 56" fill="none" xmlns="http://www.w3.org/2000/svg">
<path d="M23.4506 1.54983C26.1506 0.54983 30.7306 3.63981 31.6706 4.36981C32.6106 5.09981 24.3306 25.0698 24.9106 27.2298C25.4906 29.3898 32.8305 29.3498 34.8405 31.6898C36.8505 34.0298 22.8405 54.2898 21.1505 54.9998C19.4605 55.7098 15.3005 55.6298 15.3005 55.6298L21.1505 38.5198L14.0605 16.0198L23.4506 1.54983Z" fill="url(#paint0_linear_409_234)"/>
<path d="M2.94995 3.90005C0.53995 4.61005 0.549945 28.9001 1.56995 31.5801C2.58995 34.2601 9.74993 32.7401 12.2099 34.2901C14.6699 35.8401 14.7599 54.3401 15.2999 55.6301C15.8399 56.9201 30.96 36.7301 32.42 33.3801C33.88 30.0301 22.8399 29.38 21.3699 28.27C19.8999 27.16 26.2599 3.75005 24.4699 1.96005C22.6799 0.170048 5.97995 3.00005 2.94995 3.90005Z" fill="url(#paint1_linear_409_234)"/>
<g style="mix-blend-mode:multiply" opacity="0.5">
<path d="M21.3703 28.27C18.2303 27.36 7.72033 32.27 7.98033 32.68C8.24033 33.09 12.2803 32.58 13.5103 34.81C14.7403 37.04 15.0203 51.29 16.3703 52.39C17.7203 53.49 30.3703 36.39 30.9303 34.29C31.4903 32.19 21.3703 28.27 21.3703 28.27Z" fill="#C05CC7"/>
</g>
<g style="mix-blend-mode:soft-light">
<path d="M2.97036 4.25979C1.41036 4.83979 3.60034 14.4498 4.14034 16.6998C4.68034 18.9498 17.7904 20.1298 20.6904 17.9798C23.5904 15.8298 25.0504 4.6498 24.4704 2.9798C23.8904 1.3098 9.24036 1.92979 2.97036 4.25979Z" fill="#AC9AFF"/>
</g>
<path d="M24.9202 32.9897C23.2628 37.5911 21.2949 42.0748 19.0302 46.4097C18.5102 47.3297 18.1202 47.8797 17.9602 47.7997C17.1802 47.3997 17.9602 32.5697 16.8902 32.0097C15.8202 31.4497 6.89024 31.3397 6.32024 30.1697C5.75024 28.9997 5.26023 10.4097 6.65023 9.46969C8.88023 7.94969 19.1902 6.4697 19.3202 8.5697C19.3202 8.7297 19.3202 8.96971 19.3202 9.29971C18.9702 13.2997 16.0602 28.7497 16.8102 29.4697C17.5602 30.1897 25.1402 31.6297 24.9202 32.9897Z" fill="#479DFF"/>
<path d="M24.9206 32.9898C23.2632 37.5912 21.2953 42.0749 19.0306 46.4098C18.3906 45.8198 19.4906 33.0598 18.5406 32.4098C17.5906 31.7598 8.83059 30.7298 8.05059 29.4098C7.27059 28.0898 7.05061 11.5398 8.29061 10.4098C9.53061 9.27981 19.0506 8.12982 19.2906 9.31982C18.9406 13.3198 16.0306 28.7698 16.7806 29.4898C17.5306 30.2098 25.1406 31.6298 24.9206 32.9898Z" fill="#47FFFF"/>
<path d="M16.8098 10.7397C16.6798 10.0497 13.6098 11.3498 11.6398 11.6498C9.66979 11.9498 12.1898 14.6497 12.4298 15.5197C12.6698 16.3897 14.2398 14.2298 14.4298 15.0698C14.6198 15.9098 13.9298 19.5098 13.4298 19.2298C12.9298 18.9498 10.8698 19.9997 10.6498 21.9897C10.4298 23.9797 9.23981 28.5997 11.1298 27.8997C13.0198 27.1997 13.9298 26.5498 14.1898 27.9698C14.4498 29.3898 12.9198 29.5998 14.4598 29.7898C15.9998 29.9798 20.0198 32.1798 20.6598 33.3798C21.2998 34.5798 20.8998 34.6198 20.3398 35.3198C19.7798 36.0198 17.9198 41.1298 19.7498 40.0898C21.5798 39.0498 20.7498 40.3897 20.3598 41.6797C19.9698 42.9697 18.7898 43.1197 19.1098 43.7697C19.3363 44.3243 19.4714 44.912 19.5098 45.5098C19.5098 45.5098 20.5898 40.3398 21.1998 39.6398C21.8098 38.9398 19.9698 39.5398 20.5398 37.7998C21.1098 36.0598 22.0698 34.3698 22.1898 33.6698C22.3098 32.9698 21.1898 32.1798 19.7398 31.4398C18.2898 30.6998 14.7398 31.0298 14.9998 28.5998C15.2598 26.1698 16.2098 24.4198 14.2798 25.4698C12.3498 26.5198 11.1198 27.7097 10.9698 26.2097C10.8198 24.7097 11.6898 20.5398 12.2798 19.8998C12.8698 19.2598 14.3998 21.1397 14.7598 21.4897C15.1198 21.8397 15.8098 20.7898 16.3298 17.9098C16.8498 15.0298 17.2198 13.3798 16.1498 13.5298C15.0798 13.6798 12.4698 14.9197 13.3298 13.1797C14.1898 11.4397 16.1798 11.7898 17.0898 12.3398C17.9998 12.8898 16.8098 10.7397 16.8098 10.7397Z" fill="white"/>
<path d="M2.53027 4.40987C2.53027 4.40987 14.8803 1.49986 21.8103 1.83986C28.7403 2.17986 31.7103 4.40987 31.7103 4.40987C29.4456 2.61745 26.8074 1.35643 23.9903 0.719864C19.8503 -0.0101361 3.50026 3.53986 3.24026 3.71986C2.98026 3.89986 2.53027 4.40987 2.53027 4.40987Z" fill="#7C5CF4"/>
<g style="mix-blend-mode:multiply" opacity="0.5">
<path d="M26.8507 2.47005C25.0507 2.13005 22.3707 20.25 22.1807 23.9C21.9907 27.55 25.3007 19.4501 27.6907 14.9801C30.0807 10.5101 31.2707 5.61004 31.0407 4.74004C30.8107 3.87004 26.8507 2.47005 26.8507 2.47005Z" fill="#9A2E69"/>
</g>
<g style="mix-blend-mode:multiply" opacity="0.5">
<path d="M6.30074 10.1598C6.00074 12.1098 6.69075 10.8597 10.3707 9.45974C14.0507 8.05974 19.3708 8.78976 19.2908 9.25976C19.2108 9.72976 19.2907 7.62975 18.8108 7.49975C18.3308 7.36975 6.61074 8.01975 6.30074 10.1598Z" fill="#9ABAFF"/>
</g>
<g style="mix-blend-mode:multiply" opacity="0.5">
<path d="M16.1807 55.6899C16.2707 55.0499 26.4107 42.4699 28.1807 41.0699C29.9507 39.6699 30.1207 39.3799 30.8707 39.8399C31.6207 40.2999 24.0307 52.3399 22.4607 53.7099C20.8907 55.0799 16.1807 55.6899 16.1807 55.6899Z" fill="#9A2E69"/>
</g>
<path d="M21.3704 28.2699C21.1604 27.6099 26.3704 28.6199 30.6504 29.7299C34.9304 30.8399 35.0004 32.0099 35.0004 32.0099C34.0165 32.2639 32.9843 32.2639 32.0004 32.0099C30.7604 31.5699 30.3704 30.8499 21.3704 28.2699Z" fill="#7C5CF4"/>
<path d="M31.5299 31.79C30.9799 31.95 32.3199 33.17 32.5299 33.18C32.7399 33.19 33.4799 32.33 33.4199 32.18C32.8377 31.879 32.1838 31.7441 31.5299 31.79V31.79Z" fill="#B5CCFF"/>
<path d="M23.7302 1.07004C22.2902 1.29004 24.7801 3.07005 25.3501 3.36005C25.9201 3.65005 26.4201 2.59004 26.3001 1.94004C26.1801 1.29004 24.6502 0.930043 23.7302 1.07004Z" fill="#B5CCFF"/>
<path d="M6.32031 30.1299C6.32031 30.1299 6.62031 30.7099 8.22031 30.9899C12.3403 31.7099 16.0403 32.4099 16.6003 32.4699C17.079 32.4701 17.5536 32.3819 18.0003 32.2099C16.8281 31.7001 15.5581 31.4543 14.2803 31.4899C11.8503 31.4599 7.21031 30.8199 6.32031 30.1299Z" fill="#9ACCFF"/>
<path d="M5.75001 21.2397C5.75001 21.2397 5.02 10.7798 5.9 9.32977C6.78 7.87977 15.51 7.48975 15.51 7.48975C15.51 7.48975 7.86 8.32975 6.65 9.42975C5.44 10.5297 5.75001 21.2397 5.75001 21.2397Z" fill="#9A90FF"/>
<defs>
<linearGradient id="paint0_linear_409_234" x1="24.5505" y1="55.6298" x2="24.5505" y2="1.35983" gradientUnits="userSpaceOnUse">
<stop stop-color="#3D069A"/>
<stop offset="1" stop-color="#6509BA"/>
</linearGradient>
<linearGradient id="paint1_linear_409_234" x1="16.7399" y1="55.6901" x2="16.7399" y2="1.38005" gradientUnits="userSpaceOnUse">
<stop stop-color="#512EFF"/>
<stop offset="1" stop-color="#7C1ACC"/>
</linearGradient>
</defs>
</svg>
