<svg width="56" height="42" viewBox="0 0 56 42" fill="none" xmlns="http://www.w3.org/2000/svg">
<path d="M51.0405 37.8665C50.9143 38.8249 50.609 39.751 50.1405 40.5965C48.6805 41.7065 7.86051 43.3865 5.35051 39.5465C4.29316 38.2627 3.46133 36.8087 2.89049 35.2465C2.80049 34.8965 2.71054 34.5665 2.63054 34.2465C-1.76946 16.4065 0.46054 3.18652 1.44054 2.76652C8.44054 -0.233485 53.7205 -0.79347 55.2805 1.40653C56.4905 3.22653 53.0405 29.2465 51.0405 37.8665Z" fill="url(#paint0_linear_409_2482)"/>
<g style="mix-blend-mode:multiply" opacity="0.4">
<path d="M55.25 1.36642C54.97 -1.45358 51.59 11.6264 50.53 21.8164C49.76 29.1964 49.63 39.4964 49.88 40.0464C50.13 40.5964 56.48 13.4564 55.25 1.36642Z" fill="#C60055"/>
</g>
<g style="mix-blend-mode:multiply" opacity="0.4">
<path d="M51.0397 37.8666C50.9135 38.825 50.6081 39.7511 50.1396 40.5966C48.6796 41.7066 7.85967 43.3866 5.34967 39.5466C4.93967 38.9266 3.02965 36.1266 2.63965 34.2666C4.69965 38.7466 12.0797 42.1666 29.4297 41.5566C46.7797 40.9466 49.7097 40.2866 51.0397 37.8666Z" fill="#C60055"/>
</g>
<g style="mix-blend-mode:multiply" opacity="0.4">
<path d="M1.40993 2.70621C1.12993 4.28621 13.5299 20.5662 21.8599 24.6462C30.1899 28.7262 50.53 3.96621 55.25 1.36621C55.25 1.36621 55.4199 1.5262 55.4099 2.6662C55.3999 3.8062 36.4099 17.9162 32.9599 21.8162C29.5099 25.7162 47.35 39.7662 50.12 40.6062C50.12 40.6062 49.46 41.0062 49.06 40.8762C48.66 40.7462 34.5899 30.3662 30.9199 23.1662C30.9199 23.1662 27.01 26.5862 24.69 26.7062C22.37 26.8262 19.7999 23.7062 19.2299 23.4662C19.2299 23.4662 7.91995 33.8362 6.60995 40.0362C6.60995 40.0362 6.60992 40.5362 5.95992 39.4762C5.30992 38.4162 18.3299 23.5562 18.3299 23.3062C18.3299 23.0562 5.32993 10.6562 1.40993 2.70621Z" fill="#C60055"/>
</g>
<g style="mix-blend-mode:multiply" opacity="0.4">
<path d="M20.5205 23.9064C20.5205 23.9064 23.5205 28.0164 24.9505 28.0164C27.5705 28.0164 30.6905 27.3664 39.0505 19.9264C54.0505 6.58636 54.6005 1.77637 54.6005 1.77637C54.6005 1.77637 49.6005 6.66637 41.6005 13.9664C33.6005 21.2664 27.4505 24.3864 25.7405 24.9664C24.0305 25.5464 20.5205 23.9064 20.5205 23.9064Z" fill="#C60055"/>
</g>
<g style="mix-blend-mode:multiply" opacity="0.3">
<path d="M55.2504 1.3663C55.0204 1.2863 49.3304 -0.863697 35.2504 1.3663C20.8304 3.6463 4.13034 0.506297 2.17034 3.2663C0.210337 6.0263 0.950315 9.09631 0.710315 15.4063C0.480315 21.4063 2.46031 33.1263 2.64031 34.1963C-1.75969 16.3563 0.470305 3.13631 1.45031 2.71631C8.42031 -0.343691 53.6904 -0.853697 55.2504 1.3663Z" fill="#C60055"/>
</g>
<g style="mix-blend-mode:screen" opacity="0.3">
<path d="M3.52982 3.36662C2.52982 3.87662 8.41986 10.6966 13.8199 17.0666C19.2199 23.4366 28.6098 22.8666 34.7198 18.7866C40.8298 14.7066 52.5198 3.04663 51.9498 1.78663C51.3798 0.526634 37.4098 1.87661 26.1098 2.47661C14.8098 3.07661 5.14982 2.55662 3.52982 3.36662Z" fill="#FFB64A"/>
</g>
<g style="mix-blend-mode:multiply" opacity="0.2">
<path d="M6.6103 40.0362C6.0503 38.6862 13.3003 30.0962 26.0003 30.3462C38.7003 30.5962 47.6803 40.8962 47.6803 40.8962C47.6803 40.8962 21.2803 43.3662 6.6103 40.0362Z" fill="#EB5694"/>
</g>
<g style="mix-blend-mode:multiply" opacity="0.4">
<path d="M40.6201 33.6562C42.2449 35.3829 43.9855 36.9967 45.8301 38.4862C48.1801 40.2662 49.0601 40.8662 49.0601 40.8662C49.0601 40.8662 50.0601 41.2762 50.4201 40.0462C50.7801 38.8162 46.5101 38.9163 40.6201 33.6562Z" fill="#C60055"/>
</g>
<path d="M31.7398 24.5764C30.9298 24.1264 34.1898 30.1964 38.9398 34.0664C41.667 36.3249 44.5921 38.3331 47.6798 40.0664C47.6798 40.0664 41.3298 33.6564 31.7398 24.5764Z" fill="#FFD8A7"/>
<path d="M6.96973 38.8463C6.96973 38.8463 14.4497 28.2863 19.2297 23.4663C19.2297 23.4663 9.81973 29.5663 6.96973 38.8463Z" fill="#FFD8A7"/>
<g style="mix-blend-mode:multiply" opacity="0.4">
<path d="M50.6198 20.9666C49.8298 31.4866 53.4398 21.4566 54.5498 15.3966C55.1862 10.8789 55.1862 6.29428 54.5498 1.77658C54.5398 1.12658 51.2798 12.1066 50.6198 20.9666Z" fill="#C60055"/>
</g>
<g style="mix-blend-mode:multiply" opacity="0.2">
<path d="M7.81016 21.7162C7.81559 21.5071 7.88643 21.305 8.01273 21.1383C8.13904 20.9716 8.31445 20.8487 8.51426 20.7869C8.71407 20.7251 8.92818 20.7274 9.12656 20.7937C9.32495 20.8599 9.4976 20.9867 9.62016 21.1562C9.69979 21.5357 9.64317 21.9312 9.4603 22.2731C9.27744 22.6151 8.98001 22.8817 8.62016 23.0262C7.83016 23.2062 7.79016 22.2962 7.81016 21.7162Z" fill="#C60055"/>
</g>
<g style="mix-blend-mode:multiply" opacity="0.2">
<path d="M42.8004 5.24668C42.8078 5.03843 42.8801 4.83769 43.0071 4.67252C43.1342 4.50735 43.3096 4.386 43.509 4.32541C43.7084 4.26483 43.9217 4.26807 44.1192 4.33463C44.3166 4.40119 44.4884 4.52774 44.6104 4.69666C44.6921 5.07629 44.6364 5.4726 44.4533 5.81504C44.2702 6.15747 43.9715 6.42383 43.6104 6.56668C42.8204 6.74668 42.7804 5.82668 42.8004 5.24668Z" fill="#C60055"/>
</g>
<g style="mix-blend-mode:multiply" opacity="0.2">
<path d="M7.26002 20.7563C8.16002 19.6763 7.03003 16.0663 4.52003 16.2563C2.01003 16.4463 3.26003 20.0762 4.52003 20.9362C4.71046 21.107 4.93311 21.2381 5.17488 21.3216C5.41665 21.4052 5.67268 21.4396 5.92793 21.4228C6.18318 21.406 6.43251 21.3385 6.66127 21.224C6.89003 21.1095 7.09358 20.9505 7.26002 20.7563Z" fill="#C60055"/>
</g>
<path d="M24.7299 25.0463C23.5099 24.8863 39.6499 15.6963 39.6499 15.6963C39.6499 15.6963 30.3799 23.9763 24.7299 25.0463Z" fill="#FFC59F"/>
<g style="mix-blend-mode:multiply" opacity="0.4">
<path d="M1.41016 2.70654C1.41016 2.70654 2.70016 7.15655 7.35016 13.1465C12.0002 19.1365 20.5201 23.9066 20.5201 23.9066C20.5201 23.9066 6.60016 12.7965 1.41016 2.70654Z" fill="#C60055"/>
</g>
<path d="M20.3904 13.7266C16.5204 15.2466 15.0304 17.9066 14.4704 22.7266C13.9104 27.5466 24.5804 33.7266 29.4704 29.5766C34.3604 25.4266 34.1504 19.0666 32.7304 15.5766C31.3104 12.0866 22.4404 12.9266 20.3904 13.7266Z" fill="url(#paint1_linear_409_2482)"/>
<g style="mix-blend-mode:multiply" opacity="0.8">
<path d="M30.4498 21.6961C30.4498 22.9639 30.0739 24.2032 29.3696 25.2573C28.6652 26.3114 27.6641 27.133 26.4929 27.6182C25.3216 28.1034 24.0327 28.2303 22.7893 27.9829C21.5459 27.7356 20.4038 27.1251 19.5073 26.2287C18.6109 25.3322 18.0004 24.1901 17.7531 22.9467C17.5057 21.7032 17.6326 20.4144 18.1178 19.2431C18.603 18.0719 19.4245 17.0707 20.4786 16.3664C21.5328 15.6621 22.7721 15.2861 24.0399 15.2861C25.7399 15.2861 27.3703 15.9615 28.5724 17.1636C29.7745 18.3657 30.4498 19.9961 30.4498 21.6961Z" fill="#D40055"/>
</g>
<path d="M24.8704 27.4063C27.9135 27.4063 30.3804 24.8499 30.3804 21.6963C30.3804 18.5428 27.9135 15.9863 24.8704 15.9863C21.8273 15.9863 19.3604 18.5428 19.3604 21.6963C19.3604 24.8499 21.8273 27.4063 24.8704 27.4063Z" fill="#F20041"/>
<g style="mix-blend-mode:multiply" opacity="0.8">
<path d="M14.9004 24.8666C17.2022 27.6326 20.4697 29.42 24.0404 29.8666C29.9804 30.5666 32.3804 25.9866 33.0404 22.2466C33.3441 19.6033 32.9583 16.9264 31.9204 14.4766C32.4553 14.862 32.8907 15.3694 33.1904 15.9566C33.3904 16.6366 33.9304 24.2866 34.1204 26.3866C34.3104 28.4866 31.0304 31.5966 25.3904 31.9466C19.7504 32.2966 16.0404 27.0666 14.9004 24.8666Z" fill="#C90055"/>
</g>
<g style="mix-blend-mode:multiply" opacity="0.5">
<path d="M17.6797 20.9067C17.9897 24.2267 17.2897 23.0767 19.9897 19.0167C22.6897 14.9567 29.2797 18.4667 29.8697 19.0167C30.4597 19.5667 27.8697 14.4367 23.1697 15.2867C18.4697 16.1367 17.6797 20.9067 17.6797 20.9067Z" fill="#A10055"/>
</g>
<g style="mix-blend-mode:screen" opacity="0.3">
<path d="M14.9003 24.1261C14.9844 24.4779 15.1378 24.8094 15.3516 25.1012C15.5654 25.393 15.8352 25.6392 16.1453 25.8254C16.4554 26.0117 16.7995 26.1342 17.1575 26.1858C17.5155 26.2375 17.8802 26.2172 18.2303 26.1261C18.7503 25.9361 16.4903 22.5561 17.9503 18.6961C19.4103 14.8361 22.9503 13.5561 27.2103 15.2561C31.4703 16.9561 31.5003 15.1761 31.1103 14.4761C30.7203 13.7761 22.9203 11.6661 18.7903 14.4761C14.6603 17.2861 14.6303 22.8861 14.9003 24.1261Z" fill="#FFB64A"/>
</g>
<g style="mix-blend-mode:screen" opacity="0.3">
<path d="M26.2199 29.9066C25.0499 28.9066 29.5599 26.3166 31.0599 23.2466C32.5599 20.1766 32.3099 24.0366 31.4299 26.5766C30.5499 29.1166 26.2199 29.9066 26.2199 29.9066Z" fill="#FFB64A"/>
</g>
<path d="M25.1997 13.3663C23.9597 13.6663 26.4198 15.3663 28.2998 15.1163C30.1798 14.8663 27.8397 12.7863 25.1997 13.3663Z" fill="white"/>
<path d="M26.3101 29.6065C25.7301 29.4765 27.5301 27.9565 28.0401 28.1265C28.5501 28.2965 27.6901 29.9265 26.3101 29.6065Z" fill="white"/>
<g style="mix-blend-mode:multiply" opacity="0.2">
<path d="M36.31 26.4165C36.52 28.5565 45.69 37.8965 48.19 38.5165C50.69 39.1365 48.7799 21.8365 48.6499 17.0865C48.5199 12.3365 36.04 23.8665 36.31 26.4165Z" fill="#EB5694"/>
</g>
<g style="mix-blend-mode:multiply" opacity="0.2">
<path d="M38.9406 34.0664C35.9406 32.5964 40.4005 37.4463 42.4805 39.2963C43.1907 39.8965 44.027 40.3286 44.9274 40.5607C45.8277 40.7927 46.7688 40.8185 47.6806 40.6363C48.1006 40.5163 42.2406 37.3064 38.9406 34.0664Z" fill="#DC6A94"/>
</g>
<path d="M3.04051 4.36654C5.12051 7.59654 10.1705 4.36654 16.5205 3.30654C22.8705 2.24654 6.98049 1.60654 4.71049 2.30654C2.44049 3.00654 3.04051 4.36654 3.04051 4.36654Z" fill="#FFD8A7"/>
<defs>
<linearGradient id="paint0_linear_409_2482" x1="27.7405" y1="41.9365" x2="27.7405" y2="-0.00347465" gradientUnits="userSpaceOnUse">
<stop stop-color="#FFA274"/>
<stop offset="1" stop-color="#FFC488"/>
</linearGradient>
<linearGradient id="paint1_linear_409_2482" x1="24.0404" y1="30.9066" x2="24.0404" y2="13.0266" gradientUnits="userSpaceOnUse">
<stop stop-color="#DE0086"/>
<stop offset="1" stop-color="#FF003B"/>
</linearGradient>
</defs>
</svg>
