<svg width="69" height="77" viewBox="0 0 69 77" fill="none" xmlns="http://www.w3.org/2000/svg">
<path d="M43.4574 38.0656C42.2785 37.4888 43.5891 35.1981 44.0829 34.9858C44.5767 34.7735 44.7004 35.1364 44.7004 35.1364C44.7004 35.1364 44.6603 34.8196 44.1152 34.7413C43.5701 34.6631 42.8145 34.9803 42.259 36.3027C42.1566 36.4965 42.1089 36.7144 42.1211 36.9332C42.1332 37.1521 42.2047 37.3634 42.3279 37.5447C42.4511 37.7259 42.6214 37.8701 42.8204 37.9619C43.0194 38.0537 43.2396 38.0895 43.4574 38.0656Z" fill="#CF4060"/>
<path d="M58.1205 42.0664L58.4011 42.0625C57.4505 43.8536 56.3222 45.5444 55.033 47.1095C53.6869 48.5172 52.8763 48.7696 52.6107 48.8109C52.6107 48.8109 52.567 48.7922 52.5408 48.781L58.0158 40.162C57.8912 40.6234 57.8936 41.1099 58.0229 41.5701C58.0668 41.8781 58.1205 42.0664 58.1205 42.0664Z" fill="#CF4060"/>
<path d="M59.5644 39.8018C59.4014 39.7733 59.2369 39.7547 59.0717 39.746C58.8964 39.7226 58.7181 39.7378 58.5492 39.7905C58.3804 39.8432 58.225 39.932 58.0941 40.0509L60.4565 36.3403C60.7337 36.8515 60.308 38.2087 59.5644 39.8018Z" fill="#CF4060"/>
<path d="M44.3637 37.9987C43.98 38.1192 43.5691 38.122 43.1838 38.0069C42.7985 37.8918 42.4565 37.6639 42.2019 37.3527C41.8822 36.627 43.1046 34.9289 44.1834 34.8222C45.2622 34.7155 45.0283 37.7252 44.3637 37.9987ZM58.0942 40.0508C58.2251 39.9319 58.3805 39.843 58.5493 39.7903C58.7182 39.7377 58.8965 39.7225 59.0718 39.7458C59.7539 38.7132 60.2246 37.5557 60.4566 36.3401C60.4103 36.062 59.9424 35.7069 59.1913 35.3132C58.1578 35.9661 58.0751 35.3625 58.1695 34.8037C54.1724 32.9902 46.2525 30.6864 45.1801 30.9715C43.7597 31.3452 39.284 40.3091 39.4045 41.5488C39.525 42.7884 51.3009 48.7566 52.5257 48.8157C52.5257 48.8157 52.5694 48.8344 52.5956 48.8456C53.4286 48.6132 56.0156 44.9573 57.9929 41.6397C57.8636 41.1796 57.8611 40.6931 57.9858 40.2317L58.0493 40.0832L58.0942 40.0508Z" fill="#FFBDB3"/>
<g style="mix-blend-mode:multiply" opacity="0.5">
<path d="M58.0947 40.0506C58.2256 39.9317 58.381 39.8429 58.5498 39.7902C58.7187 39.7375 58.897 39.7223 59.0723 39.7457C59.7544 38.7131 60.2251 37.5556 60.4571 36.34C60.4108 36.0619 59.9429 35.7067 59.1955 35.3043C58.1583 35.966 58.0756 35.3624 58.17 34.8036C54.1642 32.9863 46.253 30.6863 45.1806 30.9713C43.7602 31.3451 39.2932 40.3127 39.4087 41.5399C39.5242 42.7671 51.3014 48.7565 52.5225 48.8243L52.6148 48.8018C53.444 48.5781 56.031 44.9222 58.0046 41.6134C57.8781 41.1497 57.877 40.6608 58.0012 40.1966L58.0647 40.0481L58.0947 40.0506ZM57.0839 41.3022C57.3697 43.6767 55.6047 45.339 54.0241 46.667C52.4434 47.995 47.9829 47.1196 46.791 45.8245C45.5992 44.5294 40.0111 41.5083 40.12 40.1189C40.2289 38.7294 43.7253 31.3301 45.6946 31.3152C47.5212 31.7099 49.319 32.2272 51.076 32.8635C54.3182 34.0027 59.509 35.924 59.8276 36.8455C60.1462 37.767 56.7944 38.9364 57.0839 41.3022Z" fill="#FFB4BA"/>
</g>
<g style="mix-blend-mode:multiply" opacity="0.3">
<path d="M55.1768 43.9476C53.5059 46.6214 47.5694 44.8252 45.339 44.1706C43.1086 43.5159 44.404 38.6049 45.9136 35.4385C47.4233 32.2722 51.315 32.9558 54.7122 34.6986C58.1094 36.4414 56.6396 41.6394 55.1768 43.9476Z" fill="#F96FFF"/>
</g>
<path d="M48.5852 35.2077C52.4797 32.2868 54.4399 37.8469 55.1654 41.2464C55.8908 44.6458 49.109 43.4489 47.7138 44.1743C46.3187 44.8998 43.9239 42.5528 44.917 39.0001C45.9101 35.4475 50.6083 37.53 51.9127 37.1375C53.217 36.7451 52.2831 41.3666 51.4592 42.1815C50.8262 42.6346 50.0438 42.8284 49.2724 42.7231C48.5011 42.6178 47.7992 42.2215 47.3107 41.6153C46.1437 40.1655 47.6879 38.4397 49.742 38.3474C51.7961 38.2551 51.026 39.403 50.9491 40.114C50.8722 40.8249 49.0647 40.3409 48.7225 39.5952C48.3804 38.8496 47.3064 40.756 47.9518 41.7346C48.5972 42.7133 51.0325 41.9473 51.5806 40.7147C52.1286 39.4822 52.0754 38.1577 49.3312 37.5208C46.5869 36.8839 45.4335 39.3865 45.386 41.2361C45.3385 43.0857 48.0067 43.7314 51.1694 43.4626C54.3322 43.1938 53.3707 39.3317 52.883 37.2118C52.3953 35.0918 49.2122 36.7363 48.5097 36.2292C47.8072 35.722 48.5852 35.2077 48.5852 35.2077Z" fill="#7770FF"/>
<path d="M59.5647 39.802C59.5647 39.802 58.4136 39.8363 58.1694 40.2381C57.9251 40.6398 58.4299 42.0439 58.4299 42.0439L58.1492 42.0478C58.1492 42.0478 57.6072 40.7311 57.956 40.0848C58.3048 39.4385 59.5647 39.802 59.5647 39.802Z" fill="#CF4060"/>
<path d="M58.4005 42.0622C58.2445 41.9492 58.0977 41.8242 57.9613 41.6883C57.7686 41.2529 57.7365 40.7633 57.8707 40.3064C58.0152 40.1617 58.4005 42.0622 58.4005 42.0622Z" fill="#FFC4B6"/>
<path d="M37.465 33.5495C39.9775 32.5066 43.6109 35.1459 43.7572 35.7458C43.9035 36.3456 43.3277 36.967 42.8297 36.4647C42.1477 35.6028 41.2111 34.9779 40.1534 34.6791C38.3471 34.0716 37.855 35.0285 37.2822 34.4838C37.1963 34.4281 37.129 34.348 37.089 34.2537C37.049 34.1594 37.0381 34.0554 37.0578 33.9549C37.0774 33.8544 37.1267 33.7621 37.1993 33.6898C37.2719 33.6176 37.3644 33.5687 37.465 33.5495V33.5495Z" fill="url(#paint0_linear_414_3819)"/>
<path d="M45.6149 53.4006C46.421 50.7634 46.4444 47.9489 45.6823 45.2987C42.1895 35.9318 37.3932 34.7062 37.7126 32.7766C37.7689 32.2531 37.9891 31.7609 38.3419 31.37C38.6946 30.9792 39.1619 30.7098 39.6768 30.6003L33.9286 28.8228L28.5067 26.2344C28.8068 26.6652 28.964 27.1794 28.9562 27.7043C28.9485 28.2293 28.7762 28.7386 28.4636 29.1604C27.402 30.7724 23.0378 28.4403 14.1231 32.9531C11.7803 34.1306 9.16433 37.2989 7.57409 41.3295C4.69388 48.8582 5.60082 59.4638 19.2469 66.3251C35.5869 71.0434 43.4747 61.6384 45.6149 53.4006ZM10.9104 39.327C17.3239 29.6735 27.3464 31.6267 28.8287 30.7216C29.8242 29.9544 30.5134 28.8572 30.7725 27.6274L36.536 29.8763C35.8893 30.9553 35.6482 32.2293 35.8559 33.4699C36.3259 35.1484 45.0309 40.4949 43.1758 51.9541C41.3206 63.4132 30.4616 66.1437 20.2912 62.9184C10.6289 58.3608 4.49569 49.0316 10.9104 39.327Z" fill="url(#paint1_linear_414_3819)"/>
<path d="M27.0646 17.291C26.2505 17.8415 25.334 22.3258 25.6167 23.7175C26.2447 26.8376 40.7426 31.6355 42.7052 30.7189C44.2126 30.0208 46.3638 25.4759 46.3321 24.6565C46.3004 23.8371 27.0646 17.291 27.0646 17.291Z" fill="url(#paint2_linear_414_3819)"/>
<path d="M27.0651 17.291C25.9161 18.8656 44.8764 27.577 46.3326 24.6565C47.7888 21.7359 29.5674 13.8571 27.0651 17.291Z" fill="#EBC3D3"/>
<g style="mix-blend-mode:multiply" opacity="0.5">
<path d="M30.135 18.3256C29.3561 19.3974 42.4776 24.9495 43.4779 22.9496C44.4782 20.9497 31.8547 15.9723 30.135 18.3256Z" fill="#9A376D"/>
</g>
<g style="mix-blend-mode:multiply" opacity="0.3">
<path d="M29.0166 19.7065C27.2361 18.4591 26.9587 21.8117 27.3616 23.9367C27.7645 26.0617 40.2569 30.9108 42.3622 28.8154C44.4675 26.7201 43.2376 26.5762 38.5557 24.5523C35.2962 23.0991 32.1124 21.4818 29.0166 19.7065V19.7065Z" fill="#9A376D"/>
</g>
<path opacity="0.45" d="M30.5016 20.6312C29.8839 20.1913 30.2081 24.2146 32.2487 26.5444C34.2893 28.8742 39.8738 28.0401 41.5338 25.8989C41.5263 25.9164 34.3804 22.673 30.5016 20.6312Z" fill="url(#paint3_linear_414_3819)"/>
<path d="M37.4608 22.3067C33.5214 21.1792 39.4974 24.2836 41.5918 24.7251C43.6861 25.1665 46.2815 25.0889 46.2175 24.514C46.1749 24.1548 42.741 23.5844 40.6741 23.1753C39.5798 22.9798 38.5046 22.6892 37.4608 22.3067V22.3067Z" fill="white"/>
<path d="M44.0502 28.3491C43.4737 27.9578 41.1461 29.3898 39.9827 29.8632C38.8194 30.3366 41.8491 30.8373 43.046 30.1407C44.2429 29.444 44.3434 28.5572 44.0502 28.3491Z" fill="white"/>
<path d="M27.7228 16.9837C27.0794 17.2559 27.3518 18.044 28.1741 18.6334C28.9963 19.2229 28.9204 17.4444 28.6209 17.2026C28.3489 17.0447 28.037 16.9687 27.7228 16.9837V16.9837Z" fill="white"/>
<g style="mix-blend-mode:soft-light">
<path d="M28.8513 26.5891C27.4652 25.7481 28.5803 21.8137 29.4132 21.3642C30.246 20.9147 34.048 27.9654 33.1028 28.2428C32.1576 28.5203 28.8513 26.5891 28.8513 26.5891Z" fill="white"/>
</g>
<g style="mix-blend-mode:soft-light">
<path d="M26.8537 18.6777C26.2206 20.0472 25.8675 21.5294 25.8149 23.0373C25.7886 23.398 25.86 23.7592 26.0215 24.0828C26.183 24.4064 26.4287 24.6805 26.7327 24.8764C26.9948 25.0608 26.8394 21.8743 26.977 20.3937C27.1815 18.322 27.1815 18.322 26.8537 18.6777Z" fill="white"/>
</g>
<g style="mix-blend-mode:multiply" opacity="0.3">
<path d="M29.0048 16.4989C27.5396 16.9051 26.951 17.0976 32.035 17.7954C37.1191 18.4932 42.3189 20.997 43.2836 21.9056C44.2482 22.8142 43.5217 23.7638 45.8018 24.1815C48.0819 24.5991 43.6358 20.6719 37.5992 18.4094C31.5626 16.1469 29.0048 16.4989 29.0048 16.4989Z" fill="#9A376D"/>
</g>
<path d="M30.8701 19.2394C31.904 15.0452 32.717 10.7996 33.3056 6.52012C33.3056 6.52012 46.9891 7.209 50.2945 15.8551C50.2945 15.8551 44.9572 19.2744 42.7822 23.5612C42.7748 23.5786 37.7795 23.2287 30.8701 19.2394Z" fill="url(#paint4_linear_414_3819)"/>
<path d="M49.8766 16.1302C45.4878 18.2507 31.239 6.90602 33.5671 6.19744C35.8952 5.48886 39.1646 6.2988 42.2261 7.69131C42.5177 8.1001 42.8918 8.44317 43.3243 8.69837C43.7181 8.82694 44.1299 8.89156 44.5442 8.88973L44.8673 9.02797C44.8673 9.02797 44.2583 10.4514 46.105 9.80546C49.7296 12.2964 52.0087 15.1312 49.8766 16.1302Z" fill="#FF7A00"/>
<g style="mix-blend-mode:multiply" opacity="0.5">
<path d="M32.3837 20.073C32.3837 20.073 34.8898 10.6177 36.0917 9.86115C37.2935 9.10462 43.1595 9.78575 46.7827 11.8938C50.4059 14.0019 50.1851 16.015 50.1851 16.015C49.807 14.9971 49.1985 14.0805 48.4072 13.3369C47.6159 12.5933 46.6633 12.0429 45.6239 11.7287C41.9427 10.5049 37.6879 9.51094 36.6111 10.7962C35.5343 12.0815 33.3618 20.5638 33.3618 20.5638L32.3837 20.073Z" fill="#B10053"/>
</g>
<g style="mix-blend-mode:multiply" opacity="0.5">
<path d="M34.9649 21.332C34.9649 21.332 37.6991 13.7099 39.5592 12.5015C41.4193 11.2931 49.0665 16.3833 49.0665 16.3833C49.0665 16.3833 41.8863 12.2781 40.0158 12.8105C38.1454 13.343 36.1674 21.8052 36.1674 21.8052L34.9649 21.332Z" fill="#B10053"/>
</g>
<g style="mix-blend-mode:multiply" opacity="0.5">
<path d="M38.3522 22.5648C38.3522 22.5648 39.5841 17.8745 42.9587 17.3038C46.3333 16.733 46.114 19.2737 46.114 19.2737L45.0596 20.3619C45.0596 20.3619 45.3386 17.7538 42.8069 17.9723C40.2752 18.1909 38.8238 22.7665 38.8238 22.7665L38.3522 22.5648Z" fill="#B10053"/>
</g>
<path d="M34.8323 15.1694C34.8323 15.1694 35.2413 11.026 36.0738 9.85312C36.9062 8.68024 44.1565 11.2451 44.1565 11.2451C44.1565 11.2451 38.6367 9.65824 36.8611 10.4999C35.6442 11.0744 34.8323 15.1694 34.8323 15.1694Z" fill="#97001A"/>
<path d="M38.0319 15.8053C38.0319 15.8053 38.8693 12.5683 40.0428 12.3368C41.2163 12.1054 43.9737 13.8224 43.9737 13.8224C43.9737 13.8224 41.1953 12.396 40.0157 12.8108C38.8361 13.2256 38.0319 15.8053 38.0319 15.8053Z" fill="#97001A"/>
<g style="mix-blend-mode:soft-light" opacity="0.5">
<path d="M34.2186 6.26971C33.2519 6.1144 35.188 8.83338 35.7445 9.24711C36.301 9.66085 38.8988 9.40858 40.1536 9.6872C41.4085 9.96581 35.5233 6.456 34.2186 6.26971Z" fill="white"/>
</g>
<g style="mix-blend-mode:soft-light" opacity="0.5">
<path d="M37.1203 10.4248C37.7773 11.13 38.5067 11.7642 39.2965 12.3167C39.6396 12.3602 40.7657 12.2634 41.3943 12.2431C42.0229 12.2228 40.4189 10.0798 37.1203 10.4248Z" fill="white"/>
</g>
<g style="mix-blend-mode:soft-light" opacity="0.5">
<path d="M40.3599 13.092C42.043 14.1113 43.7885 15.0238 45.5861 15.824C46.3556 16.1792 47.1849 16.3868 48.031 16.4361C48.031 16.4361 44.5107 13.1943 40.3599 13.092Z" fill="white"/>
</g>
<path d="M39.6003 13.0565C39.904 13.1751 40.2261 13.2395 40.552 13.2467C40.6563 13.2177 40.7519 13.1636 40.8306 13.0892C40.9092 13.0148 40.9685 12.9224 41.0033 12.8199C40.5224 12.728 40.0245 12.812 39.6003 13.0565V13.0565Z" fill="#FFA457"/>
<path d="M36.3379 10.9993C36.3379 10.9993 37.1051 11.1622 37.3082 10.8565C37.5113 10.5509 37.3453 10.4075 37.3453 10.4075C37.3453 10.4075 36.9062 10.323 36.3379 10.9993Z" fill="#FFA457"/>
<g style="mix-blend-mode:multiply" opacity="0.3">
<path d="M36.51 21.7759C36.51 21.7759 38.4069 15.4589 39.1695 14.4008C39.9322 13.3427 43.0362 15.0221 45.0273 15.874C47.0183 16.7258 44.6605 15.7894 42.1545 17.2277C39.6485 18.666 38.5106 21.9294 38.0929 22.1329C37.6752 22.3364 36.51 21.7759 36.51 21.7759Z" fill="#D42F55"/>
</g>
<g style="mix-blend-mode:multiply" opacity="0.3">
<path d="M37.0542 11.4505C36.7062 11.3946 34.6957 15.5141 34.2399 18.6561C33.7841 21.7981 35.2894 19.7043 35.6396 19.1516C35.9897 18.5989 38.1767 13.5114 38.5955 13.0397C39.0142 12.568 37.0542 11.4505 37.0542 11.4505Z" fill="#D42F55"/>
</g>
<g style="mix-blend-mode:multiply" opacity="0.3">
<path d="M35.7812 9.78965C35.9045 9.50147 33.4526 7.69825 33.4639 7.81672C33.4752 7.9352 31.6722 16.8338 31.6965 17.96C31.7209 19.0863 33.5391 14.5952 35.7812 9.78965Z" fill="#D42F55"/>
</g>
<path d="M39.7383 20.6786C40.3928 19.7007 41.2471 18.8725 42.2449 18.2487C42.5378 18.0925 42.8631 18.0067 43.195 17.998C43.5269 17.9894 43.8562 18.0582 44.1569 18.1989C44.1569 18.1989 43.5054 17.5483 42.0353 18.1591C41.014 18.7241 40.2068 19.6095 39.7383 20.6786V20.6786Z" fill="#FF6500"/>
<path d="M36.8976 19.0596C36.8976 19.0596 38.4592 15.1923 38.9301 14.309C39.401 13.4257 39.5829 13.0489 39.5829 13.0489C39.5829 13.0489 38.2789 13.9477 36.8976 19.0596Z" fill="#FF6500"/>
<path d="M49.9112 15.2055C49.9062 15.5561 49.848 15.9039 49.7384 16.237C49.5611 16.4023 49.3742 16.5569 49.1787 16.7001C49.1787 16.7001 50.1287 16.0734 50.1761 16.011C50.2234 15.9487 49.9112 15.2055 49.9112 15.2055Z" fill="#97001A"/>
<g style="mix-blend-mode:multiply" opacity="0.8">
<path d="M31.2992 17.656C31.2992 17.656 31.1694 19.4807 36.5923 21.6563C42.0152 23.8318 43.3416 22.6636 43.3416 22.6636L42.8096 23.5931C42.8096 23.5931 37.7557 23.3318 30.9049 19.2539L31.2992 17.656Z" fill="#D42F55"/>
</g>
<path opacity="0.5" d="M20.2912 62.9187C10.6289 58.3611 4.53064 49.0469 10.9291 39.2836C12.3205 37.1052 14.1694 35.2558 16.3474 33.8637C21.8954 30.4106 27.7516 31.3562 28.8038 30.6596C29.7993 29.8923 30.4885 28.7952 30.7475 27.5653L36.511 29.8143C35.8643 30.8932 35.6232 32.1673 35.8309 33.4079C36.1972 34.701 41.4625 38.1626 42.9894 44.9527C43.4889 47.2308 43.5348 49.5849 43.1246 51.8808C41.3095 63.4397 30.4729 66.1178 20.2912 62.9187Z" fill="url(#paint5_radial_414_3819)"/>
<path d="M20.2912 62.919C10.6289 58.3613 4.53063 49.0472 10.9291 39.2839C12.3205 37.1055 14.1694 35.256 16.3474 33.864L28.2607 44.0751L42.9957 44.9866C43.4951 47.2647 43.5411 49.6189 43.1308 51.9147C41.3094 63.44 30.4729 66.1181 20.2912 62.919Z" fill="url(#paint6_linear_414_3819)"/>
<g style="mix-blend-mode:multiply" opacity="0.2">
<path d="M13.4458 36.228C16.3728 33.9263 21.7596 42.2955 24.3385 52.0359C26.9174 61.7762 32.4797 57.3478 36.7241 53.5849C40.9686 49.822 36.2455 60.2091 31.7207 62.3333C27.1959 64.4575 36.9037 63.7657 40.8103 58.1846C44.7169 52.6035 43.0148 45.0152 43.0148 45.0152C43.0148 45.0152 42.7359 49.9169 39.6355 50.0884C36.535 50.2599 25.5541 43.2062 21.693 39.4569C17.8318 35.7077 16.3728 33.9263 16.3728 33.9263C15.3175 34.5865 14.3362 35.3582 13.4458 36.228V36.228Z" fill="#9A7AFF"/>
</g>
<path d="M17.4404 33.8457C13.2723 31.9487 21.8108 42.4413 32.8383 48.1305C43.8658 53.8198 43.5429 45.8816 42.6473 43.6284C41.7517 41.3752 29.0687 41.1248 24.1413 39.5538C19.2139 37.9828 19.0198 34.5731 17.4404 33.8457Z" fill="url(#paint7_linear_414_3819)"/>
<g style="mix-blend-mode:soft-light" opacity="0.3">
<path d="M8.80759 51.0529C8.85117 38.612 19.6312 57.8224 24.567 60.9673C29.5029 64.1123 32.3937 63.7064 32.3937 63.7064C32.3937 63.7064 24.2904 65.405 17.966 61.666C11.6417 57.927 8.80759 51.0529 8.80759 51.0529Z" fill="white"/>
</g>
<g style="mix-blend-mode:multiply" opacity="0.3">
<path d="M9.41674 42.0465C9.41674 42.0465 4.96305 56.5368 20.2848 62.524C35.6066 68.5113 42.3385 55.2644 42.3385 55.2644C42.3385 55.2644 37.0193 69.8699 20.1506 63.2724C3.28191 56.675 9.41674 42.0465 9.41674 42.0465Z" fill="#9A3792"/>
</g>
<path d="M22.0342 66.4027C20.6754 65.377 28.8474 65.836 34.1046 64.2214C39.3618 62.6069 32.4893 70.0494 22.0342 66.4027Z" fill="white"/>
<path d="M10.318 37.2348C8.71339 40.1642 15.4209 34.1698 17.5502 32.622C19.6795 31.0742 12.9205 32.4801 10.318 37.2348Z" fill="white"/>
<path d="M18.6055 32.1127C18.099 31.896 19.8009 30.9608 20.2624 31.1376C20.724 31.3145 19.2206 32.4379 18.6055 32.1127Z" fill="white"/>
<path d="M43.9867 43.3235C43.1534 43.122 44.0555 47.7747 43.8416 50.9066C43.6277 54.0384 45.3565 52.1953 45.9564 50.117C46.5563 48.0388 45.4199 43.6681 43.9867 43.3235Z" fill="white"/>
<g style="mix-blend-mode:multiply" opacity="0.5">
<path d="M27.1476 29.7749C29.5922 30.0254 27.2422 31.6544 31.154 34.5368C35.0657 37.4192 36.9625 35.0384 37.3991 33.1486C37.5492 32.5761 37.831 32.0465 38.222 31.6021C38.613 31.1578 39.1025 30.8109 39.6513 30.5892C35.6857 29.8522 31.8955 28.3708 28.4812 26.2233C28.4812 26.2233 29.5142 28.7832 27.1476 29.7749Z" fill="#9A376D"/>
</g>
<path style="mix-blend-mode:screen" d="M10.415 52.6803C10.415 52.6803 5.91705 45.5901 12.9241 37.7609C18.1239 31.9583 24.0244 31.931 24.0244 31.931C24.0244 31.931 26.1301 32.5633 23.3598 40.3662C20.5895 48.1692 13.8171 54.2185 10.415 52.6803Z" fill="url(#paint8_linear_414_3819)"/>
<path d="M18.6176 37.397C22.1664 41.4275 26.3115 44.8908 30.9088 47.6665C38.9101 52.6292 41.6844 49.4048 41.6844 49.4048C41.6844 49.4048 38.7479 50.5452 31.9312 47.1844C25.1144 43.8236 18.6176 37.397 18.6176 37.397Z" fill="#59C7FF"/>
<g style="mix-blend-mode:soft-light">
<path d="M27.9138 45.6829C27.4857 45.0658 31.0036 46.4779 32.5858 47.6818C34.168 48.8856 32.8322 48.8203 32.1834 48.4291C31.5346 48.0379 27.9138 45.6829 27.9138 45.6829Z" fill="white"/>
</g>
<g style="mix-blend-mode:multiply" opacity="0.2">
<path d="M21.8874 40.79C20.7044 39.6433 24.1696 50.765 25.9861 55.6953C27.8025 60.6257 33.2234 55.4652 35.9922 53.2921C37.3902 52.1418 38.9054 51.1418 40.5127 50.3086C37.4001 50.1706 34.3483 49.3993 31.5439 48.0416C27.342 45.8616 21.8874 40.79 21.8874 40.79Z" fill="#9A7AFF"/>
</g>
<g style="mix-blend-mode:multiply" opacity="0.5">
<path d="M19.2481 66.3471C5.60574 59.477 4.6951 48.8801 7.57531 41.3515C7.37489 41.9889 1.76948 57.6497 19.0805 65.6039C36.7459 73.7199 45.6149 53.4013 45.6149 53.4013C43.4747 61.6391 35.5868 71.0441 19.2481 66.3471Z" fill="#9A376D"/>
</g>
<g style="mix-blend-mode:multiply" opacity="0.2">
<path d="M22.7632 43.0658C17.2838 36.2893 15.4106 44.5794 16.1786 50.2699C16.9465 55.9604 19.2086 49.2005 21.7812 50.6008C24.3538 52.0011 22.6674 55.7736 24.696 58.9765C26.7247 62.1793 18.8416 60.9967 18.0265 57.8069C17.2114 54.617 20.1044 55.8961 20.1734 56.4835C20.2423 57.0709 23.0394 60.5302 22.3394 55.9123C21.6394 51.2943 19.4167 52.9158 17.159 54.5946C14.9013 56.2735 12.5397 53.0521 12.318 45.4568C12.0964 37.8615 15.003 34.7866 16.334 35.2011C17.6651 35.6156 21.2763 40.6733 26.9502 45.3531C32.624 50.0329 24.7171 48.5199 22.7632 43.0658Z" fill="#9A7AFF"/>
</g>
<g style="mix-blend-mode:soft-light">
<path d="M15.013 59.8028C11.9532 55.0017 19.1926 58.0991 25.3598 61.7708C31.5269 65.4426 22.6903 65.1848 15.013 59.8028Z" fill="white"/>
</g>
<path d="M36.9177 37.654C33.4052 36.9776 33.8994 43.6461 36.3149 47.2728C38.7305 50.8994 41.8267 45.7877 41.4595 42.9755C41.0924 40.1633 37.8482 37.8455 36.9177 37.654Z" fill="white"/>
<path d="M24.5059 33.6559C25.283 31.8395 21.3699 32.7274 20.6921 33.8528C20.0143 34.9781 23.8209 35.3051 24.5059 33.6559Z" fill="white"/>
<g style="mix-blend-mode:soft-light">
<path d="M38.305 34.9418C37.3421 34.7778 40.7052 37.9523 42.0675 40.4671C43.4297 42.9819 42.436 37.3601 38.305 34.9418Z" fill="white"/>
</g>
<g style="mix-blend-mode:soft-light">
<path d="M8.34635 48.7272C7.22702 43.6406 5.89386 54.073 10.775 59.5914C15.6562 65.1098 21.1761 64.7647 21.6498 64.3578C22.1235 63.951 16.1268 61.7159 12.6101 58.3206C9.09346 54.9254 8.34635 48.7272 8.34635 48.7272Z" fill="#75FFFF"/>
</g>
<g style="mix-blend-mode:multiply" opacity="0.4">
<path d="M39.3464 50.9569C40.8941 50.3806 42.2758 49.4318 43.3695 48.1944C43.4829 48.0983 44.1043 54.6145 40.4632 57.9331C36.8221 61.2516 35.7845 61.4069 35.8472 59.884C35.9099 58.3611 39.8167 53.1417 38.1301 52.5441C36.4436 51.9464 32.3138 57.711 29.4736 57.1054C26.6333 56.4997 28.4356 52.4564 30.8967 51.0506C33.3578 49.6447 31.3479 52.7004 33.1188 52.4972C34.8897 52.2941 35.8639 50.4277 30.3548 47.9466C24.8456 45.4655 25.5871 50.7108 28.257 50.0245C30.9268 49.3382 26.516 54.2386 25.6914 54.0408C24.8669 53.843 24.4425 51.2129 22.7368 45.7824C21.031 40.3518 19.5915 39.9012 17.5281 41.0536C15.4647 42.206 16.507 49.8633 14.3178 49.2572C12.1285 48.6511 11.7149 43.2672 13.2391 39.2702C14.7632 35.2733 14.8915 34.9252 15.8532 35.0681C16.8149 35.2109 22.4333 43.111 29.4162 46.8322C36.399 50.5533 39.3464 50.9569 39.3464 50.9569Z" fill="#9A7AFF"/>
</g>
<path d="M11.4945 42.9863C10.4134 41.3357 8.95771 45.052 9.49349 46.2627C10.0293 47.4734 12.4732 44.4899 11.4945 42.9863Z" fill="white"/>
<path d="M28.8254 26.8671C27.8146 25.9697 26.7954 27.6515 30.2431 30.3871C33.6908 33.1226 38.8428 32.8887 39.5222 32.2909C39.6356 32.1912 39.7257 32.0677 39.7859 31.9292C39.8461 31.7907 39.8749 31.6407 39.8704 31.4897C39.8659 31.3388 39.8282 31.1907 39.7598 31.056C39.6915 30.9214 39.5943 30.8035 39.4751 30.7107C39.2143 30.5475 38.3792 31.3886 38.2384 31.597C38.0976 31.8054 35.0318 31.4854 32.1711 30.1065C29.3104 28.7276 28.9108 27.8747 28.9044 27.5517C28.9012 27.3214 28.8747 27.092 28.8254 26.8671V26.8671Z" fill="url(#paint9_linear_414_3819)"/>
<path d="M28.5079 27.8983C27.5195 27.0209 24.9294 29.6217 30.5664 33.0356C34.5577 35.4664 38.6317 34.5648 39.0128 33.6017C39.3939 32.6386 38.0317 32.2728 37.7785 32.2367C37.5253 32.2007 37.6655 33.1286 37.6655 33.1286C37.6655 33.1286 33.3839 33.1149 31.2016 31.6957C29.0194 30.2765 28.5424 29.2665 28.5883 28.9659C28.6343 28.6653 28.7275 28.0853 28.5079 27.8983Z" fill="url(#paint10_linear_414_3819)"/>
<g style="mix-blend-mode:soft-light" opacity="0.6">
<path d="M30.8041 31.7322C29.9261 31.9248 32.1836 33.9651 34.2029 34.2196C36.2223 34.474 37.66 33.9631 37.7895 33.5639C37.919 33.1647 34.4766 33.0246 33.1456 32.6101C31.8146 32.1956 30.8041 31.7322 30.8041 31.7322Z" fill="#FFB192"/>
</g>
<g style="mix-blend-mode:soft-light" opacity="0.6">
<path d="M30.759 29.5439C30.2665 29.7051 31.2587 30.7908 33.5728 31.7809C35.887 32.771 37.8985 32.3919 38.0879 32.07C38.2773 31.7481 34.8933 31.3024 33.8043 30.8778C32.7152 30.4531 31.0259 29.4514 30.759 29.5439Z" fill="#FFB192"/>
</g>
<defs>
<linearGradient id="paint0_linear_414_3819" x1="37.436" y1="32.5361" x2="43.3926" y2="36.0651" gradientUnits="userSpaceOnUse">
<stop stop-color="#5B1833"/>
<stop offset="1" stop-color="#6D2948"/>
</linearGradient>
<linearGradient id="paint1_linear_414_3819" x1="18.7246" y1="66.623" x2="33.6225" y2="28.6966" gradientUnits="userSpaceOnUse">
<stop stop-color="#E8E5ED"/>
<stop offset="0.05" stop-color="#E5DDEA"/>
<stop offset="0.28" stop-color="#DABBDC"/>
<stop offset="0.46" stop-color="#D3A7D4"/>
<stop offset="0.59" stop-color="#D19FD1"/>
<stop offset="0.64" stop-color="#BE92C3"/>
<stop offset="0.72" stop-color="#A57FB0"/>
<stop offset="0.81" stop-color="#9272A3"/>
<stop offset="0.9" stop-color="#886B9B"/>
<stop offset="1" stop-color="#846898"/>
</linearGradient>
<linearGradient id="paint2_linear_414_3819" x1="25.0117" y1="21.1187" x2="44.4967" y2="28.7726" gradientUnits="userSpaceOnUse">
<stop stop-color="#9082A9"/>
<stop offset="0.22" stop-color="#9386AB"/>
<stop offset="0.42" stop-color="#9D90B3"/>
<stop offset="0.6" stop-color="#ADA3C0"/>
<stop offset="0.79" stop-color="#C4BCD1"/>
<stop offset="0.96" stop-color="#E1DDE8"/>
<stop offset="1" stop-color="#E8E5ED"/>
</linearGradient>
<linearGradient id="paint3_linear_414_3819" x1="28.9269" y1="23.2893" x2="40.4429" y2="27.8129" gradientUnits="userSpaceOnUse">
<stop stop-color="#A71100"/>
<stop offset="0.39" stop-color="#D83303"/>
<stop offset="1" stop-color="#EC5C11"/>
</linearGradient>
<linearGradient id="paint4_linear_414_3819" x1="30.7029" y1="12.2972" x2="48.6047" y2="19.3292" gradientUnits="userSpaceOnUse">
<stop stop-color="#A71100"/>
<stop offset="0.39" stop-color="#D83303"/>
<stop offset="1" stop-color="#EC5C11"/>
</linearGradient>
<radialGradient id="paint5_radial_414_3819" cx="0" cy="0" r="1" gradientUnits="userSpaceOnUse" gradientTransform="translate(25.0119 50.1237) rotate(21.4454) scale(19.2049 19.205)">
<stop stop-color="#E8E5ED"/>
<stop offset="0.14" stop-color="#E3DDE3"/>
<stop offset="0.42" stop-color="#DBD1D5"/>
<stop offset="0.66" stop-color="#D8CDD0"/>
<stop offset="0.68" stop-color="#D4C5CE"/>
<stop offset="0.75" stop-color="#C7ACC9"/>
<stop offset="0.83" stop-color="#BE99C5"/>
<stop offset="0.91" stop-color="#B98FC3"/>
<stop offset="1" stop-color="#B78BC2"/>
</radialGradient>
<linearGradient id="paint6_linear_414_3819" x1="19.7656" y1="63.1937" x2="29.1185" y2="39.3835" gradientUnits="userSpaceOnUse">
<stop stop-color="#3DFFFF"/>
<stop offset="0.32" stop-color="#4A9EFF"/>
<stop offset="1" stop-color="#6540FF"/>
</linearGradient>
<linearGradient id="paint7_linear_414_3819" x1="14.6774" y1="37.1614" x2="42.3174" y2="48.0187" gradientUnits="userSpaceOnUse">
<stop stop-color="#3D9DFF"/>
<stop offset="1" stop-color="#65B8FF"/>
</linearGradient>
<linearGradient id="paint8_linear_414_3819" x1="10.4393" y1="40.1012" x2="21.4069" y2="44.4093" gradientUnits="userSpaceOnUse">
<stop offset="0.02" stop-color="#008DFE"/>
<stop offset="1"/>
</linearGradient>
<linearGradient id="paint9_linear_414_3819" x1="27.0495" y1="28.1468" x2="39.0696" y2="32.8684" gradientUnits="userSpaceOnUse">
<stop stop-color="#5B1833"/>
<stop offset="1" stop-color="#6D2948"/>
</linearGradient>
<linearGradient id="paint10_linear_414_3819" x1="26.281" y1="29.7129" x2="38.3188" y2="34.4415" gradientUnits="userSpaceOnUse">
<stop stop-color="#5B1833"/>
<stop offset="1" stop-color="#6D2948"/>
</linearGradient>
</defs>
</svg>
